<svg id="OBJECTS" xmlns="http://www.w3.org/2000/svg" viewBox="0 0 459.31 437.54"><defs><style>.cls-1{opacity:0.41;}.cls-2,.cls-5,.cls-6{fill:#e1e2fe;}.cls-3{opacity:0.31;}.cls-17,.cls-4{fill:#ecf1f7;}.cls-4,.cls-5{opacity:0.47;}.cls-11,.cls-6{opacity:0.81;}.cls-13,.cls-18,.cls-21,.cls-28,.cls-7{fill:#3e479b;}.cls-7,.cls-8{opacity:0.58;}.cls-8{fill:#ef929c;}.cls-12,.cls-9{opacity:0.66;}.cls-10,.cls-12,.cls-24,.cls-25,.cls-30{fill:#fff;}.cls-13{opacity:0.14;}.cls-14,.cls-15{fill:#f7a9b4;}.cls-15,.cls-20,.cls-21{opacity:0.39;}.cls-16{fill:#599af2;}.cls-17{opacity:0.07;}.cls-19,.cls-20{fill:#6d6cd4;}.cls-19{opacity:0.74;}.cls-22{fill:#6161b5;}.cls-23{opacity:0.28;}.cls-24{opacity:0.21;}.cls-25{opacity:0.76;}.cls-26{fill:none;}.cls-27{fill:#4c65ba;}.cls-28{opacity:0.43;}.cls-29{fill:#f28393;}.cls-30{opacity:0.12;}</style></defs><title>about</title><g class="cls-1"><path class="cls-2" d="M479.21,298.48a129.7,129.7,0,0,0-.59-22.11c-3.9-34.45-21.58-66.94-47.59-89.86-9.28-8.18-19.84-15.5-25.88-26.3-10.17-18.18-9.4-39.07-22-57A106.77,106.77,0,0,0,331.3,64C269.37,42.56,182.67,77.5,190.48,152.11c0,0.27.06,0.66,0.09,1.15A27.16,27.16,0,0,1,164,182.16c-57.14,1.36-106.32,45.41-116.84,101.21-6.77,35.89,4.31,75.22,30.56,100.6,19.59,18.95,45.88,29.36,72.19,36.51,52.74,14.34,108.24,17.35,162.62,11.86,50.9-5.13,104.59-19.77,137.51-58.93C467.56,352.53,477.62,325.74,479.21,298.48Z" transform="translate(-20.12 -22.53)"/></g><g class="cls-3"><circle class="cls-2" cx="197.39" cy="22.86" r="13.29"/></g><g class="cls-3"><circle class="cls-2" cx="377.01" cy="14.75" r="6.86"/></g><g class="cls-3"><circle class="cls-2" cx="134.89" cy="52.62" r="9.19"/></g><g class="cls-3"><circle class="cls-2" cx="28.91" cy="385.95" r="20.93"/></g><path class="cls-4" d="M473.51,82a23.65,23.65,0,0,0-10.24-31.84c-11.62-6-34-5.53-39.92,6.09s11.92,21.59,19.21,32.43C452.74,103.75,467.55,93.57,473.51,82Z" transform="translate(-20.12 -22.53)"/><path class="cls-5" d="M422.7,439.1a18.12,18.12,0,0,0,25.05-5.39c5.43-8.41,6.78-25.46-1.62-30.89S428.77,410.27,420,415C407.66,421.62,414.3,433.67,422.7,439.1Z" transform="translate(-20.12 -22.53)"/><path class="cls-5" d="M79.54,28.63a22.85,22.85,0,0,0-32.29,1.19c-8.59,9.25-14,30.13-4.77,38.72s23.2-5.44,35.19-9.39C94.37,53.65,88.78,37.22,79.54,28.63Z" transform="translate(-20.12 -22.53)"/><path class="cls-5" d="M28.56,128.46A94.22,94.22,0,0,0,22,186.28c4.65,22.68,18.77,40.1,13.87,64.29-3,14.74-3.73,28.39-5.24,43C27.54,323.49,47,349.87,71.09,364.11c19.59,11.57,42.55,15.91,65.07,15.6,20.27-.28,40.5-4,60.14-9.05,18.93-4.85,37.43-11.24,57.27-9.22,16.5,1.68,31.36,8.81,46.73,14.13,36.69,12.7,81.12,14.49,114.67-4.84a96.78,96.78,0,0,0,45.3-105.39c-4.11-18.15-11.05-36.44-8.9-55.35,1.5-13.18,7.53-25.89,6.42-39.11-0.73-8.78-4.6-17-9.33-24.45-17.26-27.15-46.17-45.33-76.74-55.34-28.77-9.43-58.45-16.25-88.4-14-61.94,4.69-74.56-5.15-137.86-18.69C104.61,49.67,58.9,80.83,35,116.92A86.17,86.17,0,0,0,28.56,128.46Z" transform="translate(-20.12 -22.53)"/><path class="cls-6" d="M71.17,156.36c-1.27,14.29,3.55,29-.48,43.17-4.82,16.95-18.79,29.64-24.48,46.28-8.41,24.58-8,52.13,2.21,76.09,4.92,11.55,12.11,22.27,21.93,29.69,15.14,11.44,35,13.95,53.63,12.5,27.76-2.16,57.06-14.18,85-10.9,15.4,1.81,20.11,18.48,28.06,29.48a92.19,92.19,0,0,0,34.8,28.71c25,12,54.9,13.11,80.4,2.25,27.23-11.6,51-39.91,49.4-71.94-0.72-14.82-6.65-29.53-3.91-44.09,3.45-18.27,17.21-34.92,27.19-49.8a114.84,114.84,0,0,0,19-56q0-.34,0-0.68a76.32,76.32,0,0,0-52.55-76.77l-69.86-23C250.64,68,179.81,68.79,114.64,103c-14.1,7.4-37.07,29.46-41.8,44.67A41.42,41.42,0,0,0,71.17,156.36Z" transform="translate(-20.12 -22.53)"/><circle class="cls-7" cx="447.53" cy="359.05" r="4.5"/><circle class="cls-7" cx="239.65" cy="8.33" r="4.5"/><circle class="cls-7" cx="77.08" cy="400.55" r="4.5"/><circle class="cls-8" cx="361.11" cy="419.47" r="3.5"/><circle class="cls-7" cx="57.22" cy="84.97" r="1.5"/><circle class="cls-8" cx="391.58" cy="61.63" r="5.4" transform="translate(229.4 409.17) rotate(-77.94)"/><circle class="cls-8" cx="106" cy="37.48" r="2.12" transform="translate(27.08 110.79) rotate(-77.94)"/><circle class="cls-7" cx="444.07" cy="28.64" r="1.8" transform="translate(303.19 434.41) rotate(-77.94)"/><circle class="cls-7" cx="63.02" cy="458.27" r="1.8" transform="translate(-418.43 401.66) rotate(-77.95)"/><g class="cls-9"><path class="cls-10" d="M194.41,189.75l-8-.61A41,41,0,0,0,181,172.51l6.06-5.2a7.32,7.32,0,1,0-9.53-11.11l-6.06,5.2a41,41,0,0,0-15.62-7.91l0.61-8a7.32,7.32,0,0,0-6.74-7.86h0a7.32,7.32,0,0,0-7.86,6.74l-0.61,8a41,41,0,0,0-16.64,5.45l-5.2-6.06a7.32,7.32,0,1,0-11.11,9.53l5.2,6.06A41,41,0,0,0,105.6,183l-8-.61a7.32,7.32,0,0,0-7.86,6.74h0A7.32,7.32,0,0,0,96.52,197l8,0.61a41,41,0,0,0,5.45,16.64l-6.06,5.2a7.32,7.32,0,0,0,9.53,11.11l6.06-5.2a41,41,0,0,0,15.62,7.91l-0.61,8a7.32,7.32,0,0,0,6.74,7.86h0a7.32,7.32,0,0,0,7.86-6.74l0.61-8a41,41,0,0,0,16.64-5.45l5.2,6.06a7.32,7.32,0,1,0,11.11-9.53l-5.2-6.06a41,41,0,0,0,7.91-15.62l8,0.61a7.32,7.32,0,0,0,7.86-6.74h0A7.32,7.32,0,0,0,194.41,189.75ZM143.2,223.09a29.82,29.82,0,1,1,32-27.46A29.82,29.82,0,0,1,143.2,223.09Z" transform="translate(-20.12 -22.53)"/><path class="cls-10" d="M364.45,414.17a6.11,6.11,0,0,1-5.81-4.26l-1.43-4.51a29.27,29.27,0,0,1-10.94-.94l-2.18,4.2A6.1,6.1,0,1,1,333.26,403l2.18-4.2a29.3,29.3,0,0,1-7.07-8.4l-4.51,1.43a6.1,6.1,0,1,1-3.68-11.63l4.51-1.43a29.29,29.29,0,0,1,.94-10.94l-4.2-2.18a6.1,6.1,0,0,1,5.62-10.83l4.2,2.18a29.33,29.33,0,0,1,8.4-7.07l-1.43-4.51a6.1,6.1,0,1,1,11.63-3.68l1.43,4.51a29.25,29.25,0,0,1,10.94.94l2.18-4.2a6.1,6.1,0,0,1,10.83,5.62l-2.18,4.2a29.32,29.32,0,0,1,7.07,8.4l4.51-1.43a6.1,6.1,0,1,1,3.68,11.63l-4.51,1.43a29.29,29.29,0,0,1-.94,10.94l4.2,2.18a6.1,6.1,0,1,1-5.62,10.83l-4.2-2.18a29.33,29.33,0,0,1-8.4,7.07l1.43,4.51A6.11,6.11,0,0,1,364.45,414.17Zm-5.83-11,1.93,6.1a4.1,4.1,0,0,0,7.82-2.48l-1.93-6.1,0.74-.39a27.4,27.4,0,0,0,9-7.58l0.51-.66,5.68,2.95a4.1,4.1,0,0,0,3.78-7.28l-5.68-2.95,0.25-.8a27.39,27.39,0,0,0,1-11.73l-0.11-.83,6.1-1.93a4.1,4.1,0,0,0-2.47-7.82l-6.1,1.93-0.39-.74a27.38,27.38,0,0,0-7.58-9l-0.66-.51,2.95-5.68a4.1,4.1,0,0,0-7.28-3.78l-2.95,5.68-0.8-.25a27.42,27.42,0,0,0-11.73-1l-0.83.11-1.93-6.1a4.1,4.1,0,1,0-7.82,2.48l1.93,6.1-0.74.39a27.4,27.4,0,0,0-9,7.58l-0.51.66-5.68-2.95a4.1,4.1,0,1,0-3.78,7.28l5.68,2.95-0.25.8a27.39,27.39,0,0,0-1,11.73l0.11,0.83-6.1,1.93a4.1,4.1,0,0,0,2.48,7.82l6.1-1.93,0.39,0.74a27.39,27.39,0,0,0,7.58,9l0.66,0.51L335,404a4.1,4.1,0,0,0,7.28,3.78l2.95-5.68,0.8,0.25a27.42,27.42,0,0,0,11.72,1Zm-4.39-5.58a21.84,21.84,0,1,1,6.6-1A21.68,21.68,0,0,1,354.22,397.62Zm0-41.57a19.81,19.81,0,1,0,9.09,2.23A19.83,19.83,0,0,0,354.27,356.05Z" transform="translate(-20.12 -22.53)"/><path class="cls-10" d="M417,376.84a7.86,7.86,0,0,1-7.78-9l1-6.58a39.1,39.1,0,0,1-13-7.76l-5.33,4a7.85,7.85,0,0,1-9.39-12.59l5.33-4A39.08,39.08,0,0,1,384,326.22l-6.58-1a7.85,7.85,0,1,1,2.26-15.54l6.58,1a39.07,39.07,0,0,1,7.76-13l-4-5.32a7.85,7.85,0,1,1,12.59-9.39l4,5.32a39.09,39.09,0,0,1,14.71-3.73l1-6.58a7.85,7.85,0,1,1,15.54,2.26l-1,6.58a39.07,39.07,0,0,1,13,7.76l5.33-4a7.85,7.85,0,1,1,9.39,12.59l-5.32,4A39.08,39.08,0,0,1,463,321.82l6.58,1a7.85,7.85,0,1,1-2.26,15.54l-6.58-1a39.09,39.09,0,0,1-7.76,13l4,5.33a7.85,7.85,0,1,1-12.59,9.39l-4-5.32a39.09,39.09,0,0,1-14.71,3.73l-1,6.58A7.87,7.87,0,0,1,417,376.84Zm-19.73-25.92,0.61,0.57a37.16,37.16,0,0,0,13.72,8.17l0.79,0.26-1.19,8.22a5.85,5.85,0,1,0,11.59,1.68l1.19-8.22,0.84,0a37.15,37.15,0,0,0,15.47-3.93l0.75-.37,5,6.66a5.85,5.85,0,1,0,9.38-7l-5-6.66,0.57-.61a37.15,37.15,0,0,0,8.17-13.72l0.26-.79,8.22,1.19a5.85,5.85,0,1,0,1.68-11.59l-8.22-1.19,0-.84a37.14,37.14,0,0,0-3.93-15.47l-0.37-.75,6.66-5a5.85,5.85,0,0,0-7-9.38h0l-6.66,5-0.61-.57a37.13,37.13,0,0,0-13.72-8.17l-0.79-.26,1.19-8.22a5.85,5.85,0,0,0-11.59-1.68L423,286.44l-0.84,0a37.15,37.15,0,0,0-15.47,3.93l-0.75.37-5-6.66a5.85,5.85,0,0,0-9.38,7l5,6.66-0.57.61a37.13,37.13,0,0,0-8.17,13.72l-0.26.79-8.22-1.19a5.85,5.85,0,0,0-1.68,11.59l8.22,1.19,0,0.84a37.15,37.15,0,0,0,3.93,15.47l0.37,0.75-6.66,5a5.85,5.85,0,1,0,7,9.38Zm26.29,2a28.89,28.89,0,1,1,17.26-5.73h0A28.77,28.77,0,0,1,423.52,352.93Zm-0.09-55.84a26.92,26.92,0,1,0,16.16,48.5h0a26.92,26.92,0,0,0-12.23-48.21A27.35,27.35,0,0,0,423.43,297.09Zm16.76,49.3h0Z" transform="translate(-20.12 -22.53)"/></g><g class="cls-11"><path class="cls-10" d="M287.66,380.86H267.12a1,1,0,0,1,0-2h20.54A1,1,0,0,1,287.66,380.86Z" transform="translate(-20.12 -22.53)"/><path class="cls-10" d="M287.66,402.22H267.12a1,1,0,0,1,0-2h20.54A1,1,0,0,1,287.66,402.22Z" transform="translate(-20.12 -22.53)"/><path class="cls-10" d="M303.17,423.78H176.3a2.71,2.71,0,0,1-2.71-2.71V355.22a2.71,2.71,0,0,1,2.71-2.71H303.17a2.72,2.72,0,0,1,2.71,2.71v65.85A2.71,2.71,0,0,1,303.17,423.78ZM176.3,354.51a0.71,0.71,0,0,0-.71.71v65.85a0.71,0.71,0,0,0,.71.71H303.17a0.71,0.71,0,0,0,.71-0.71V355.22a0.71,0.71,0,0,0-.71-0.71H176.3Z" transform="translate(-20.12 -22.53)"/><path class="cls-12" d="M303.17,423.78H176.3a2.71,2.71,0,0,1-2.71-2.71V355.22a2.71,2.71,0,0,1,2.71-2.71H303.17a2.72,2.72,0,0,1,2.71,2.71v65.85A2.71,2.71,0,0,1,303.17,423.78ZM176.3,354.51a0.71,0.71,0,0,0-.71.71v65.85a0.71,0.71,0,0,0,.71.71H303.17a0.71,0.71,0,0,0,.71-0.71V355.22a0.71,0.71,0,0,0-.71-0.71H176.3Z" transform="translate(-20.12 -22.53)"/><path class="cls-10" d="M287.66,370.5H189.77a1,1,0,0,1,0-2h97.89A1,1,0,0,1,287.66,370.5Z" transform="translate(-20.12 -22.53)"/><path class="cls-10" d="M287.66,391.23H189.77a1,1,0,0,1,0-2h97.89A1,1,0,0,1,287.66,391.23Z" transform="translate(-20.12 -22.53)"/><path class="cls-10" d="M242.55,380.86H189.77a1,1,0,0,1,0-2h52.78A1,1,0,0,1,242.55,380.86Z" transform="translate(-20.12 -22.53)"/><path class="cls-10" d="M242.55,402.22H189.77a1,1,0,0,1,0-2h52.78A1,1,0,1,1,242.55,402.22Z" transform="translate(-20.12 -22.53)"/><path class="cls-10" d="M225.36,412.11H189.77a1,1,0,1,1,0-2h35.59A1,1,0,0,1,225.36,412.11Z" transform="translate(-20.12 -22.53)"/></g><g class="cls-11"><path class="cls-10" d="M91.12,316.84H68a1,1,0,0,1,0-2H91.12A1,1,0,0,1,91.12,316.84Z" transform="translate(-20.12 -22.53)"/><path class="cls-10" d="M91.12,292.84H68a1,1,0,0,1,0-2H91.12A1,1,0,0,1,91.12,292.84Z" transform="translate(-20.12 -22.53)"/><path class="cls-10" d="M193.41,346.46h-143a2.71,2.71,0,0,1-2.71-2.71V269.31a2.71,2.71,0,0,1,2.71-2.71h143a2.71,2.71,0,0,1,2.71,2.71v74.43A2.71,2.71,0,0,1,193.41,346.46Zm-143-77.86a0.71,0.71,0,0,0-.71.71v74.43a0.71,0.71,0,0,0,.71.71h143a0.71,0.71,0,0,0,.71-0.71V269.31a0.71,0.71,0,0,0-.71-0.71h-143Z" transform="translate(-20.12 -22.53)"/><path class="cls-12" d="M193.41,346.46h-143a2.71,2.71,0,0,1-2.71-2.71V269.31a2.71,2.71,0,0,1,2.71-2.71h143a2.71,2.71,0,0,1,2.71,2.71v74.43A2.71,2.71,0,0,1,193.41,346.46Zm-143-77.86a0.71,0.71,0,0,0-.71.71v74.43a0.71,0.71,0,0,0,.71.71h143a0.71,0.71,0,0,0,.71-0.71V269.31a0.71,0.71,0,0,0-.71-0.71h-143Z" transform="translate(-20.12 -22.53)"/><path class="cls-10" d="M178.05,328.48H68a1,1,0,0,1,0-2h110A1,1,0,0,1,178.05,328.48Z" transform="translate(-20.12 -22.53)"/><path class="cls-10" d="M178.05,305.19H68a1,1,0,0,1,0-2h110A1,1,0,0,1,178.05,305.19Z" transform="translate(-20.12 -22.53)"/><path class="cls-10" d="M178.05,316.84H118.73a1,1,0,0,1,0-2h59.32A1,1,0,0,1,178.05,316.84Z" transform="translate(-20.12 -22.53)"/><path class="cls-10" d="M178.05,292.84H118.73a1,1,0,0,1,0-2h59.32A1,1,0,0,1,178.05,292.84Z" transform="translate(-20.12 -22.53)"/><path class="cls-10" d="M178.05,281.72H138a1,1,0,1,1,0-2h40A1,1,0,0,1,178.05,281.72Z" transform="translate(-20.12 -22.53)"/></g><rect class="cls-13" x="261.93" y="212.89" width="176.9" height="130.91" rx="1.85" ry="1.85" transform="translate(-87.86 415.26) rotate(-59.34)"/><rect class="cls-14" x="259.09" y="206.92" width="176.9" height="130.91" rx="1.85" ry="1.85" transform="translate(-84.12 409.89) rotate(-59.34)"/><path class="cls-13" d="M388.57,379.07L263.48,356a1.85,1.85,0,0,1-1.49-2.16l31.4-170.33a1.85,1.85,0,0,1,2.16-1.49l125.1,23.06a1.85,1.85,0,0,1,1.49,2.16l-31.4,170.33A1.85,1.85,0,0,1,388.57,379.07Z" transform="translate(-20.12 -22.53)"/><rect class="cls-10" x="250.93" y="210.31" width="176.9" height="130.91" transform="translate(-13.46 537.01) rotate(-79.56)"/><rect class="cls-15" x="250.93" y="210.31" width="176.9" height="130.91" rx="1.85" ry="1.85" transform="translate(-13.46 537.01) rotate(-79.56)"/><path class="cls-10" d="M400.31,221.14l-0.18,0-31.31-5.77a1,1,0,0,1,.36-2l31.31,5.77A1,1,0,0,1,400.31,221.14Z" transform="translate(-20.12 -22.53)"/><path class="cls-10" d="M398.46,231.14l-0.18,0L367,225.35a1,1,0,0,1,.36-2l31.31,5.77A1,1,0,0,1,398.46,231.14Z" transform="translate(-20.12 -22.53)"/><path class="cls-10" d="M396.46,242l-0.18,0L365,236.23a1,1,0,0,1,.36-2L396.64,240A1,1,0,0,1,396.46,242Z" transform="translate(-20.12 -22.53)"/><rect class="cls-13" x="295.53" y="186.21" width="62.68" height="58.56" rx="2" ry="2" transform="translate(35.56 475.35) rotate(-79.56)"/><rect class="cls-16" x="296.08" y="185.9" width="59.56" height="56.02" rx="2" ry="2" transform="translate(36.3 473.07) rotate(-79.56)"/><path class="cls-17" d="M357.49,196.83L302.4,186.68l1-5.21a2,2,0,0,1,2.27-1.56L357,189.36a1.88,1.88,0,0,1,1.5,2.18Z" transform="translate(-20.12 -22.53)"/><path class="cls-18" d="M317.82,213.85a6.49,6.49,0,0,1-1.18-.11l-0.76-.14a7.48,7.48,0,0,1-6-8.7l1.92-10.44a1.5,1.5,0,0,1,3,.54l-1.92,10.44a4.47,4.47,0,0,0,3.58,5.21l0.76,0.14a3.47,3.47,0,0,0,4-2.79l4.87-26.42a3.59,3.59,0,0,0-2.88-4.18l-1.3-.24a3.81,3.81,0,0,0-4.44,3.05l-0.12.65a1.5,1.5,0,0,1-3-.54l0.12-.65a6.82,6.82,0,0,1,7.93-5.46l1.3,0.24a6.59,6.59,0,0,1,5.28,7.67l-4.87,26.42A6.49,6.49,0,0,1,317.82,213.85Z" transform="translate(-20.12 -22.53)"/><path class="cls-10" d="M323,191.66h-0.09l-20-3.68a0.5,0.5,0,1,1,.18-1l20,3.68A0.5,0.5,0,0,1,323,191.66Z" transform="translate(-20.12 -22.53)"/><path class="cls-10" d="M384.14,295L384,295l-95.68-17.64a1,1,0,0,1,.36-2L384.33,293A1,1,0,0,1,384.14,295Z" transform="translate(-20.12 -22.53)"/><path class="cls-10" d="M377.3,332.11l-0.18,0-95.68-17.64a1,1,0,0,1,.36-2l95.68,17.64A1,1,0,0,1,377.3,332.11Z" transform="translate(-20.12 -22.53)"/><path class="cls-10" d="M330.27,304.25l-0.18,0-45.23-8.34a1,1,0,0,1,.36-2l45.23,8.34A1,1,0,0,1,330.27,304.25Z" transform="translate(-20.12 -22.53)"/><path class="cls-10" d="M336.5,270.44l-0.18,0-45.23-8.34a1,1,0,0,1,.36-2l45.23,8.34A1,1,0,0,1,336.5,270.44Z" transform="translate(-20.12 -22.53)"/><path class="cls-10" d="M380.75,313.41l-0.18,0-43.1-7.94a1,1,0,1,1,.36-2l43.1,7.94A1,1,0,0,1,380.75,313.41Z" transform="translate(-20.12 -22.53)"/><rect class="cls-16" x="293.98" y="69.87" width="59.85" height="24.45" rx="3.33" ry="3.33"/><rect class="cls-14" x="312.84" y="87.86" width="81.05" height="33.12" rx="3.33" ry="3.33"/><rect class="cls-10" x="328.12" y="113.98" width="91.42" height="34.28" rx="4.52" ry="4.52"/><rect class="cls-19" x="328.12" y="113.98" width="91.42" height="34.28" rx="4.52" ry="4.52"/><path class="cls-10" d="M410.65,157.66a4,4,0,1,1,4-4A4,4,0,0,1,410.65,157.66Zm0-6.94a3,3,0,1,0,3,3A3,3,0,0,0,410.65,150.72Z" transform="translate(-20.12 -22.53)"/><path class="cls-10" d="M394.26,157.66a4,4,0,1,1,4-4A4,4,0,0,1,394.26,157.66Zm0-6.94a3,3,0,1,0,3,3A3,3,0,0,0,394.26,150.72Z" transform="translate(-20.12 -22.53)"/><path class="cls-10" d="M379,157.66a4,4,0,1,1,4-4A4,4,0,0,1,379,157.66Zm0-6.94a3,3,0,1,0,3,3A3,3,0,0,0,379,150.72Z" transform="translate(-20.12 -22.53)"/><path class="cls-10" d="M152.38,94.8H280a4.66,4.66,0,0,1,4.66,4.66v188a16.06,16.06,0,0,1-16.06,16.06H180a34.22,34.22,0,0,1-34.22-34.22V101.4A6.61,6.61,0,0,1,152.38,94.8Z" transform="translate(-20.12 -22.53)"/><path class="cls-20" d="M147.39,94.8H282.18a2.5,2.5,0,0,1,2.5,2.5V288.2a15.31,15.31,0,0,1-15.31,15.31H176.95a31.18,31.18,0,0,1-31.18-31.18V96.42A1.62,1.62,0,0,1,147.39,94.8Z" transform="translate(-20.12 -22.53)"/><path class="cls-21" d="M159.21,94.8H282.7a2,2,0,0,1,2,2v192a14.79,14.79,0,0,1-14.79,14.79H188.76a30.66,30.66,0,0,1-30.66-30.66V95.9A1.1,1.1,0,0,1,159.21,94.8Z" transform="translate(-20.12 -22.53)"/><path class="cls-22" d="M177.49,303.48v0H289.06a23.25,23.25,0,0,0,23.25-23.25v-8.83H199.48v8.83A23.25,23.25,0,0,1,177.49,303.48Z" transform="translate(-20.12 -22.53)"/><g class="cls-23"><path class="cls-18" d="M192.28,303.48v0h99.33c11.43,0,20.7-10.41,20.7-23.25v-8.83H211.86v8.83C211.86,292.68,203.19,302.82,192.28,303.48Z" transform="translate(-20.12 -22.53)"/></g><path class="cls-10" d="M263.59,247.37H183.37a1,1,0,0,1,0-2h80.22A1,1,0,0,1,263.59,247.37Z" transform="translate(-20.12 -22.53)"/><path class="cls-10" d="M265.27,213.6h-83.4a1,1,0,0,1,0-2h83.4A1,1,0,0,1,265.27,213.6Z" transform="translate(-20.12 -22.53)"/><path class="cls-10" d="M223.48,230.47H180.86a1,1,0,1,1,0-2h42.62A1,1,0,0,1,223.48,230.47Z" transform="translate(-20.12 -22.53)"/><path class="cls-10" d="M220.25,230.47H184.09a1,1,0,0,1,0-2h36.16A1,1,0,0,1,220.25,230.47Z" transform="translate(-20.12 -22.53)"/><path class="cls-10" d="M237.35,177.48h-54.9a1,1,0,1,1,0-2h54.9A1,1,0,0,1,237.35,177.48Z" transform="translate(-20.12 -22.53)"/><path class="cls-10" d="M262.8,177.48H246.08a1,1,0,1,1,0-2H262.8A1,1,0,0,1,262.8,177.48Z" transform="translate(-20.12 -22.53)"/><path class="cls-10" d="M265.27,194.36H205.82a1,1,0,0,1,0-2h59.45A1,1,0,0,1,265.27,194.36Z" transform="translate(-20.12 -22.53)"/><path class="cls-10" d="M200,194.36H181.87a1,1,0,0,1,0-2H200A1,1,0,0,1,200,194.36Z" transform="translate(-20.12 -22.53)"/><path class="cls-10" d="M263.59,163.2H183.37a1,1,0,0,1,0-2h80.22A1,1,0,0,1,263.59,163.2Z" transform="translate(-20.12 -22.53)"/><path class="cls-10" d="M263.59,129.42H183.37a1,1,0,0,1,0-2h80.22A1,1,0,1,1,263.59,129.42Z" transform="translate(-20.12 -22.53)"/><path class="cls-10" d="M212.81,146.29H182.45a1,1,0,0,1,0-2h30.36A1,1,0,0,1,212.81,146.29Z" transform="translate(-20.12 -22.53)"/><path class="cls-10" d="M263,146.29H226.82a1,1,0,0,1,0-2H263A1,1,0,0,1,263,146.29Z" transform="translate(-20.12 -22.53)"/><circle class="cls-24" cx="305.97" cy="195.87" r="63.29"/><path class="cls-25" d="M276.5,222.94a4,4,0,0,1-4-4A58,58,0,0,1,330.4,161a4,4,0,0,1,0,8,50,50,0,0,0-49.9,49.9A4,4,0,0,1,276.5,222.94Z" transform="translate(-20.12 -22.53)"/><path class="cls-7" d="M326.1,283.69a65.29,65.29,0,1,1,65.29-65.29A65.37,65.37,0,0,1,326.1,283.69Zm0-126.58a61.29,61.29,0,1,0,61.29,61.29A61.36,61.36,0,0,0,326.1,157.1Z" transform="translate(-20.12 -22.53)"/><circle class="cls-26" cx="305.97" cy="195.87" r="63.29"/><path class="cls-18" d="M384.27,263.74a2.79,2.79,0,0,1,.3-0.25A74,74,0,1,0,371,277l8.54-8.54ZM326.1,281.69a63.29,63.29,0,1,1,63.29-63.29A63.29,63.29,0,0,1,326.1,281.69Z" transform="translate(-20.12 -22.53)"/><path class="cls-18" d="M326.1,293.25A74.86,74.86,0,1,1,401,218.39a74.13,74.13,0,0,1-15.59,45.71l-0.19.19a1.81,1.81,0,0,0-.19.15l-13.33,13.32A74.14,74.14,0,0,1,326.1,293.25Zm0-147.72a72.86,72.86,0,0,0,0,145.72,72.15,72.15,0,0,0,44.28-15L383.56,263a2.92,2.92,0,0,1,.3-0.25A72.15,72.15,0,0,0,399,218.39,72.94,72.94,0,0,0,326.1,145.54Zm0,137.15a64.29,64.29,0,1,1,64.29-64.29A64.36,64.36,0,0,1,326.1,282.69Zm0-126.58a62.29,62.29,0,1,0,62.29,62.29A62.36,62.36,0,0,0,326.1,156.1Z" transform="translate(-20.12 -22.53)"/><path class="cls-27" d="M382.44,275.29l-2.86-2.86a2.82,2.82,0,0,1,0-4L371,277l-0.14.14a2.82,2.82,0,0,0,0,4l3.48,3.48C375.52,282.67,378.87,278.9,382.44,275.29Z" transform="translate(-20.12 -22.53)"/><path class="cls-27" d="M379.58,268.43a2.82,2.82,0,0,0,0,4l2.86,2.86a78.91,78.91,0,0,1,9.15-8.22l-3.33-3.33a2.92,2.92,0,0,0-4,0Z" transform="translate(-20.12 -22.53)"/><path class="cls-28" d="M379.58,268.43a2.82,2.82,0,0,0,0,4l2.86,2.86a78.91,78.91,0,0,1,9.15-8.22l-3.33-3.33a2.92,2.92,0,0,0-4,0Z" transform="translate(-20.12 -22.53)"/><path class="cls-16" d="M445.18,319l-52-52.58c-0.19-.19-0.76.06-1.57,0.62a78.91,78.91,0,0,0-9.15,8.22c-3.57,3.61-6.92,7.37-8.07,9.3a1.32,1.32,0,0,0-.35,1.22l52,52.58a13.44,13.44,0,0,0,19.15,0A13.79,13.79,0,0,0,445.18,319Z" transform="translate(-20.12 -22.53)"/><path class="cls-13" d="M445.18,319l-52-52.58c-0.7-.71-6.63,4.6-11.72,9.85-4.33,4.46,58.44,67.43,63.73,62.09h0A13.79,13.79,0,0,0,445.18,319Z" transform="translate(-20.12 -22.53)"/><rect class="cls-10" x="43.94" y="195.06" width="207.14" height="36.17" rx="18.09" ry="18.09"/><path class="cls-16" d="M253.12,253.75H225.31l-0.13-36.17h27.94a18.09,18.09,0,0,1,18.09,18.09h0A18.09,18.09,0,0,1,253.12,253.75Z" transform="translate(-20.12 -22.53)"/><path class="cls-10" d="M246.08,242a7.91,7.91,0,1,1,5.59-2.32A7.92,7.92,0,0,1,246.08,242Zm0-13.82A5.91,5.91,0,1,0,252,234.1,5.92,5.92,0,0,0,246.08,228.18Z" transform="translate(-20.12 -22.53)"/><path class="cls-10" d="M257.21,246.29a1,1,0,0,1-.71-0.29l-6.28-6.28a1,1,0,1,1,1.41-1.41l6.28,6.28A1,1,0,0,1,257.21,246.29Z" transform="translate(-20.12 -22.53)"/><path class="cls-29" d="M255.56,291.12h-85.1a10.78,10.78,0,0,1-10.78-10.78v-7.07a10.82,10.82,0,0,0-10.82-10.82H109.54a10.82,10.82,0,0,0-10.82,10.82V385.6a10.08,10.08,0,0,0,10.08,10.08H255.56a10.08,10.08,0,0,0,10.08-10.08V301.2A10.08,10.08,0,0,0,255.56,291.12Z" transform="translate(-20.12 -22.53)"/><path class="cls-29" d="M246.18,291.12h-85.1a10.78,10.78,0,0,1-10.78-10.78v-7.07a10.82,10.82,0,0,0-10.82-10.82H100.17a10.82,10.82,0,0,0-10.82,10.82V385.6a10.08,10.08,0,0,0,10.08,10.08H246.18a10.08,10.08,0,0,0,10.08-10.08V301.2A10.08,10.08,0,0,0,246.18,291.12Z" transform="translate(-20.12 -22.53)"/><path class="cls-30" d="M246.18,291.12h-85.1a10.78,10.78,0,0,1-10.78-10.78v-7.07a10.82,10.82,0,0,0-10.82-10.82H100.17a10.82,10.82,0,0,0-10.82,10.82V385.6a10.08,10.08,0,0,0,10.08,10.08H246.18a10.08,10.08,0,0,0,10.08-10.08V301.2A10.08,10.08,0,0,0,246.18,291.12Z" transform="translate(-20.12 -22.53)"/><path class="cls-30" d="M224.6,291.12H151.21c-5.14,0-9.3-4.83-9.3-10.78v-7.07c0-6-4.18-10.82-9.33-10.82H98.68c-5.15,0-9.33,4.85-9.33,10.82V385.6c0,5.57,3.89,10.08,8.69,10.08H224.6c4.8,0,8.69-4.51,8.69-10.08V301.2C233.29,295.64,229.4,291.12,224.6,291.12Z" transform="translate(-20.12 -22.53)"/><path class="cls-10" d="M97.21,302.35a1,1,0,0,1-1-1V276.81a6.9,6.9,0,0,1,6.89-6.89h29a1,1,0,0,1,0,2h-29a4.9,4.9,0,0,0-4.89,4.89v24.54A1,1,0,0,1,97.21,302.35Z" transform="translate(-20.12 -22.53)"/></svg>