<svg id="Capa_1" fill="#eceff1" enable-background="new 0 0 512.106 512.106" height="512" viewBox="0 0 512.106 512.106"
     width="512" xmlns="http://www.w3.org/2000/svg">
    <g>
        <g id="Page-1_40_">
            <g id="_x30_41---Bot-Searching" transform="translate(0 -1)">
                <path id="Shape_322_"
                      d="m153.675 154.706c-14.139 0-25.6 11.462-25.6 25.6s11.462 25.6 25.6 25.6 25.6-11.462 25.6-25.6-11.461-25.6-25.6-25.6zm0 34.133c-4.713 0-8.533-3.821-8.533-8.533 0-4.713 3.821-8.533 8.533-8.533 4.713 0 8.533 3.821 8.533 8.533 0 4.713-3.82 8.533-8.533 8.533z"/>
                <path id="Shape_321_"
                      d="m204.875 94.973h34.133c4.713 0 8.533-3.821 8.533-8.533 0-4.713-3.821-8.533-8.533-8.533h-34.133c-4.713 0-8.533 3.821-8.533 8.533s3.82 8.533 8.533 8.533z"/>
                <path id="Shape_320_"
                      d="m213.408 69.373h17.067c4.713 0 8.533-3.821 8.533-8.533s-3.821-8.533-8.533-8.533h-17.067c-4.713 0-8.533 3.821-8.533 8.533s3.821 8.533 8.533 8.533z"/>
                <path id="Shape_319_"
                      d="m315.808 154.706c-18.378-.051-35.984 7.379-48.768 20.582-2.134 2.18-2.943 5.333-2.122 8.271s3.147 5.215 6.101 5.973c2.955.758 6.09-.117 8.224-2.297 9.583-9.906 22.783-15.487 36.565-15.462 4.713 0 8.533-3.821 8.533-8.533.001-4.713-3.82-8.534-8.533-8.534z"/>
                <path id="Shape_318_"
                      d="m406.176 271.067c20.473-38.286 14.433-85.339-15.044-117.214-2.225-19.121-7.488-37.765-15.59-55.228v-47.889c11.755-4.156 18.806-16.176 16.698-28.465-2.109-12.289-12.763-21.271-25.232-21.271s-23.123 8.982-25.231 21.271 4.943 24.309 16.698 28.465v18.876c-31.844-43.466-82.653-68.959-136.533-68.506-53.863-.704-104.736 24.701-136.534 68.181v-18.551c11.755-4.156 18.806-16.176 16.698-28.465s-12.763-21.271-25.231-21.271-23.123 8.982-25.231 21.271c-2.109 12.289 4.943 24.309 16.698 28.465v47.599c-11.365 24.744-17.19 51.671-17.067 78.899 0 70.827 31.659 117.129 92.203 136.986-18.739 9.704-29.541 29.969-27.153 50.935l7.586 68.267c2.727 24.355 22.393 43.326 46.831 45.176v.375c0 18.851 15.282 34.133 34.133 34.133h34.133c18.851 0 34.133-15.282 34.133-34.133v-.375c24.438-1.849 44.104-20.82 46.831-45.176l3.251-29.252c34.885-.385 68.057-15.182 91.648-40.883 11.825 7.614 27.359 5.948 37.299-4.002 11.55-11.715 11.55-30.534 0-42.249zm-39.168-252.894c4.713 0 8.533 3.821 8.533 8.533s-3.82 8.533-8.533 8.533-8.533-3.821-8.533-8.533 3.821-8.533 8.533-8.533zm-290.133 0c4.713 0 8.533 3.821 8.533 8.533s-3.821 8.533-8.533 8.533-8.533-3.821-8.533-8.533 3.82-8.533 8.533-8.533zm238.933 290.133c-47.128 0-85.333-38.205-85.333-85.333s38.205-85.333 85.333-85.333 85.333 38.205 85.333 85.333c-.051 47.107-38.226 85.281-85.333 85.333zm11.52 44.373c-1.34-10.148-5.695-19.661-12.501-27.307v-.043c.35 0 .691.051 1.041.051 16.773.01 33.288-4.126 48.077-12.041l14.054 14.063c-12.532 15.233-30.947 24.422-50.654 25.276h-.017zm-88.32-27.306v17.067c0 9.426-7.641 17.067-17.067 17.067s-17.067-7.641-17.067-17.067v-17.067zm-25.105-111.787c-4.25-.77-8.241-2.585-11.614-5.282-3.401-2.992-8.546-2.806-11.722.424s-3.274 8.378-.225 11.727c6.596 5.785 14.801 9.417 23.518 10.411.673 8.952 2.53 17.776 5.521 26.24h-48.64c-37.685-.042-68.224-30.582-68.267-68.267.07-37.673 30.593-68.196 68.267-68.267h102.4c6.499.018 12.962.97 19.191 2.825-42.772 10.143-74.321 46.422-78.429 90.189zm-145.561-36.352c0-90.675 66.031-159.061 153.6-159.061 71.303-.434 133.258 48.91 148.787 118.502-13.84-8.86-29.623-14.23-45.995-15.65-14.815-11.332-32.941-17.487-51.593-17.519h-102.4c-47.101.066-85.268 38.232-85.333 85.333.052 47.107 38.226 85.282 85.333 85.333h56.542c7.338 12.632 17.277 23.56 29.158 32.06-11.447 1.392-22.969 2.084-34.5 2.074-101.921 0-153.599-44.1-153.599-131.072zm170.666 318.805h-34.133c-9.426 0-17.067-7.641-17.067-17.067h68.267c0 9.426-7.641 17.067-17.067 17.067zm30.08-34.133h-94.293c-15.537-.011-29.092-10.547-32.939-25.6h54.485c4.713 0 8.533-3.82 8.533-8.533s-3.821-8.533-8.533-8.533h-56.841l-6.221-55.97c-1.07-9.649 2.019-19.298 8.495-26.531s15.725-11.366 25.434-11.366h20.599v17.067c0 18.851 15.282 34.133 34.133 34.133s34.133-15.282 34.133-34.133v-17.067h20.599c9.708-.001 18.958 4.132 25.434 11.366 6.476 7.233 9.565 16.882 8.495 26.531l-6.221 55.97h-56.841c-4.713 0-8.533 3.82-8.533 8.533s3.821 8.533 8.533 8.533h54.485c-3.843 15.053-17.399 25.589-32.936 25.6zm56.039-74.888 1.92-17.246c24.311-.898 47.167-11.813 63.147-30.157l12.126 12.126c-19.729 21.951-47.685 34.727-77.193 35.277zm114.952-39.783c-5.086 4.822-13.056 4.822-18.142 0l-43.452-43.443c6.779-5.269 12.873-11.363 18.142-18.142l43.426 43.435c4.96 5.03 4.971 13.106.026 18.15z"/>
            </g>
        </g>
    </g>
</svg>