<svg id="Background_Complete" data-name="Background Complete" xmlns="http://www.w3.org/2000/svg" viewBox="0 0 413.25 426.82"><defs><style>.cls-1{fill:#ebebeb;}.cls-2{fill:#263238;}.cls-3{fill:#ffc727;}.cls-4{opacity:0.1;}.cls-5{fill:#37474f;}.cls-6{opacity:0.2;}.cls-7,.cls-8{fill:#fff;}.cls-8{opacity:0.4;}.cls-9{fill:#dbdbdb;}.cls-10{fill:#455a64;}</style></defs><title>5203298</title><path class="cls-1" d="M92.64,317.14l-14.83.28-7.51.11c-2.51,0-5,0-7.55.06H62.3v-0.45l-0.05-12.63V304h0.5l14.95,0.06c5,0,10,.11,14.95.16h0.28v0.27c0,2.14-.09,4.27-0.13,6.38Zm0,0-0.14-6.38c0-2.1-.11-4.19-0.13-6.26l0.27,0.27c-5,.05-10,0.16-14.95.16L62.74,305l0.5-.5-0.05,12.63-0.45-.45c2.47,0,4.93,0,7.4.06l7.43,0.11Z" transform="translate(-43.37 -43.29)"/><path class="cls-1" d="M76,333.07l-14.83.28-7.51.11c-2.51,0-5,0-7.55.06H45.62v-0.45l-0.05-12.63v-0.5h0.5L61,320c5,0,10,.11,14.95.16h0.28v0.27c0,2.14-.09,4.27-0.13,6.38Zm0,0-0.14-6.38c0-2.1-.11-4.19-0.13-6.26L76,320.71c-5,.05-10,0.16-14.95.16l-14.95.06,0.5-.5-0.05,12.63-0.45-.45c2.47,0,4.93,0,7.4.06l7.43,0.11Z" transform="translate(-43.37 -43.29)"/><path class="cls-1" d="M76,59.71L61.13,60l-7.51.11c-2.51,0-5,0-7.55.05H45.62V59.71L45.56,47.08v-0.5h0.5L61,46.64c5,0,10,.11,14.95.16h0.28v0.27c0,2.14-.09,4.27-0.13,6.38Zm0,0-0.14-6.38c0-2.1-.11-4.19-0.13-6.26L76,47.35c-5,.05-10,0.16-14.95.16l-14.95.06,0.5-.5L46.51,59.71l-0.45-.45c2.47,0,4.93,0,7.4.05l7.43,0.11Z" transform="translate(-43.37 -43.29)"/><path class="cls-1" d="M453.94,59.71L439.1,60l-7.51.11c-2.51,0-5,0-7.55.05H423.6V59.71l-0.05-12.63v-0.5H424L439,46.64c5,0,10,.11,14.95.16h0.28v0.27c0,2.14-.09,4.27-0.13,6.38Zm0,0-0.14-6.38c0-2.1-.11-4.19-0.13-6.26l0.27,0.27c-5,.05-10,0.16-14.95.16L424,47.58l0.5-.5-0.05,12.63L424,59.27c2.47,0,4.93,0,7.4.05l7.43,0.11Z" transform="translate(-43.37 -43.29)"/><path class="cls-1" d="M437.26,75.64l-14.83.28-7.51.11c-2.51,0-5,0-7.55.05h-0.44V75.64L406.86,63v-0.5h0.5l14.95,0.06c5,0,10,.11,14.95.16h0.28V63c0,2.14-.09,4.27-0.13,6.38Zm0,0-0.14-6.38c0-2.1-.11-4.19-0.13-6.26l0.27,0.27c-5,.05-10,0.16-14.95.16l-14.95.06,0.5-.5-0.05,12.63-0.45-.45c2.47,0,4.93,0,7.4.06l7.43,0.11Z" transform="translate(-43.37 -43.29)"/><path class="cls-1" d="M360.69,223.44l-14.83.28-7.51.11c-2.51,0-5,0-7.55.06h-0.44v-0.45L330.3,210.8v-0.5h0.5l14.95,0.06c5,0,10,.11,14.95.16H361v0.27c0,2.14-.09,4.27-0.13,6.38Zm0,0-0.14-6.38c0-2.1-.11-4.19-0.13-6.26l0.27,0.27c-5,.05-10,0.16-14.95.16l-14.95.06,0.5-.5-0.05,12.63L330.8,223c2.47,0,4.93,0,7.4.05l7.43,0.11Z" transform="translate(-43.37 -43.29)"/><path class="cls-1" d="M344,239.37l-14.83.28-7.51.11c-2.51,0-5,0-7.55.05h-0.44v-0.45l-0.05-12.63v-0.5h0.5l14.95,0.06c5,0,10,.11,14.95.16h0.28v0.27c0,2.14-.09,4.27-0.13,6.38Zm0,0L343.87,233c0-2.1-.11-4.19-0.13-6.26L344,227c-5,.05-10,0.16-14.95.16l-14.95.06,0.5-.5-0.05,12.63-0.45-.45c2.47,0,4.93,0,7.4.05l7.43,0.11Z" transform="translate(-43.37 -43.29)"/><path class="cls-1" d="M327.4,223.44l-14.83.28-7.51.11c-2.51,0-5,0-7.55.06h-0.44v-0.45L297,210.8v-0.5h0.5l14.95,0.06c5,0,10,.11,14.95.16h0.28v0.27c0,2.14-.09,4.27-0.13,6.38Zm0,0-0.14-6.38c0-2.1-.11-4.19-0.13-6.26l0.27,0.27c-5,.05-10,0.16-14.95.16l-14.95.06,0.5-.5L298,223.44l-0.45-.45c2.47,0,4.93,0,7.4.05l7.43,0.11Z" transform="translate(-43.37 -43.29)"/><path class="cls-1" d="M453.94,333.07l-14.83.28-7.51.11c-2.51,0-5,0-7.55.06H423.6v-0.45l-0.05-12.63v-0.5H424L439,320c5,0,10,.11,14.95.16h0.28v0.27c0,2.14-.09,4.27-0.13,6.38Zm0,0-0.14-6.38c0-2.1-.11-4.19-0.13-6.26l0.27,0.27c-5,.05-10,0.16-14.95.16l-14.95.06,0.5-.5-0.05,12.63-0.45-.45c2.47,0,4.93,0,7.4.06l7.43,0.11Z" transform="translate(-43.37 -43.29)"/><path class="cls-1" d="M199.93,97.28l-14.83.28-7.51.11c-2.51,0-5,0-7.55.06h-0.44V97.28l-0.05-12.63v-0.5H170L185,84.21c5,0,10,.11,14.95.16h0.28v0.27c0,2.14-.09,4.27-0.13,6.38Zm0,0-0.14-6.38c0-2.1-.11-4.19-0.13-6.26l0.27,0.27c-5,.05-10,0.16-14.95.16L170,85.15l0.5-.5-0.05,12.63L170,96.84c2.47,0,4.93,0,7.4.06L184.86,97Z" transform="translate(-43.37 -43.29)"/><path class="cls-1" d="M423.23,181l5.89-9.49-2.91-1.8a2.65,2.65,0,0,1-1.23-2.5,15.51,15.51,0,0,0,.05-1.67,2.65,2.65,0,0,1,1.39-2.41l3-1.62-5.28-9.85-3,1.62a2.65,2.65,0,0,1-2.77-.18,15.57,15.57,0,0,0-1.42-.88,2.65,2.65,0,0,1-1.4-2.41l0.11-3.42L404.48,146l-0.1,3.43a2.66,2.66,0,0,1-1.56,2.31l-0.73.37-0.71.41a2.65,2.65,0,0,1-2.77,0l-2.93-1.81-5.89,9.49L392.7,162a2.65,2.65,0,0,1,1.23,2.5,15.52,15.52,0,0,0-.05,1.66,2.65,2.65,0,0,1-1.39,2.41l-3,1.62,5.28,9.85,3-1.62a2.65,2.65,0,0,1,2.77.18,15.46,15.46,0,0,0,1.42.87,2.66,2.66,0,0,1,1.4,2.41l-0.11,3.43,11.16,0.35,0.11-3.43a2.65,2.65,0,0,1,1.55-2.3l0.74-.37,0.71-.41a2.66,2.66,0,0,1,2.79,0Zm-9.45-7a9.15,9.15,0,1,1,3.74-12.38A9.14,9.14,0,0,1,413.77,173.92Z" transform="translate(-43.37 -43.29)"/><path class="cls-1" d="M101.53,288.51l5.89-9.49-2.91-1.8a2.65,2.65,0,0,1-1.23-2.5,15.51,15.51,0,0,0,.05-1.67,2.65,2.65,0,0,1,1.39-2.41l3-1.62-5.28-9.85-3,1.62a2.65,2.65,0,0,1-2.77-.18,15.57,15.57,0,0,0-1.42-.88,2.65,2.65,0,0,1-1.4-2.41L94,253.91l-11.16-.35L82.69,257a2.66,2.66,0,0,1-1.56,2.31l-0.73.37-0.71.41a2.65,2.65,0,0,1-2.77,0L74,258.29l-5.89,9.49L71,269.59a2.65,2.65,0,0,1,1.23,2.5,15.51,15.51,0,0,0-.05,1.66,2.65,2.65,0,0,1-1.39,2.41l-3,1.62,5.28,9.85,3-1.62a2.65,2.65,0,0,1,2.77.18,15.46,15.46,0,0,0,1.42.87,2.66,2.66,0,0,1,1.4,2.41l-0.11,3.43,11.16,0.35,0.11-3.43a2.65,2.65,0,0,1,1.55-2.3l0.74-.37,0.71-.41a2.66,2.66,0,0,1,2.79,0Zm-9.45-7a9.15,9.15,0,1,1,3.74-12.38A9.14,9.14,0,0,1,92.08,281.46Z" transform="translate(-43.37 -43.29)"/><path class="cls-1" d="M215.87,106.74L212,100l-2.07,1.2a1.86,1.86,0,0,1-2-.07,10.85,10.85,0,0,0-1-.59,1.86,1.86,0,0,1-1-1.65v-2.4h-7.83v2.4a1.86,1.86,0,0,1-1,1.65,10.85,10.85,0,0,0-1,.59,1.86,1.86,0,0,1-2,.07L192,100l-3.91,6.78,2.08,1.2a1.86,1.86,0,0,1,.91,1.73q0,0.29,0,.58t0,0.58a1.86,1.86,0,0,1-.91,1.72l-2.09,1.21,3.91,6.78,2.08-1.2a1.86,1.86,0,0,1,2,.07,10.86,10.86,0,0,0,1,.58,1.86,1.86,0,0,1,1,1.65V124h7.83v-2.4a1.86,1.86,0,0,1,1-1.65,10.8,10.8,0,0,0,1-.58,1.86,1.86,0,0,1,2-.07l2.08,1.2,3.91-6.78-2.08-1.2a1.86,1.86,0,0,1-.91-1.72q0-.29,0-0.58t0-.58a1.86,1.86,0,0,1,.91-1.73Zm-7.48,3.5a6.41,6.41,0,1,1-6.41-6.41A6.4,6.4,0,0,1,208.39,110.24Z" transform="translate(-43.37 -43.29)"/><path class="cls-2" d="M88.84,303.84c-13.07,12.79-15.26,32.59-12.51,49.92a0.35,0.35,0,0,0,.68-0.08c0-3.95-.12-7.86-0.11-11.76l0.2-.52c3.41-2.48,6.55-5.28,8.49-9.12,2.18-4.29,3-9.13,4.71-13.62,0.15-.43-0.3-0.3-0.6-0.08-7.95,5.86-10.48,12.17-12.76,20.6a70.12,70.12,0,0,1,1.38-13.13c1.72-8,5.12-15.93,10.86-21.87A0.24,0.24,0,0,0,88.84,303.84Z" transform="translate(-43.37 -43.29)"/><path class="cls-3" d="M91.29,305.33c2.25,0.08,3.66,3.67,5.41,4.72a1.69,1.69,0,0,0,2.48-.39c1.74-2.42-.65-5.41-2.89-7.09,1.6,0.66,2.93,1.82,4.66,2.14a1.62,1.62,0,0,0,2.1-1.26c0.76-3.3-3.38-4.77-6.23-4.84,1.38-1,5.33-3.56,3.23-4.84s-6.76,2.44-8.27,3.67c-2.22,1.8-4.87,4.5-5,7.32C86.68,308,89.56,306,91.29,305.33Z" transform="translate(-43.37 -43.29)"/><path class="cls-4" d="M91.29,305.33c2.25,0.08,3.66,3.67,5.41,4.72a1.69,1.69,0,0,0,2.48-.39c1.74-2.42-.65-5.41-2.89-7.09,1.6,0.66,2.93,1.82,4.66,2.14a1.62,1.62,0,0,0,2.1-1.26c0.76-3.3-3.38-4.77-6.23-4.84,1.38-1,5.33-3.56,3.23-4.84s-6.76,2.44-8.27,3.67c-2.22,1.8-4.87,4.5-5,7.32C86.68,308,89.56,306,91.29,305.33Z" transform="translate(-43.37 -43.29)"/><path class="cls-3" d="M90.64,305.89c2.87-1.31,8.4.57,8.87-.51,1-2.21-3.46-3.73-5.84-4,2.19-.59,6.4-1.54,6.27-3.66-0.16-2.58-6.45-.36-9.63,2.08-4,3.07-4,6-3.32,6.64C87.89,307.22,90.17,306.1,90.64,305.89Z" transform="translate(-43.37 -43.29)"/><path class="cls-2" d="M59.07,302.57c13.55,12.29,16.49,32,14.4,49.41a0.35,0.35,0,0,1-.68-0.06c-0.15-3.94-.18-7.86-0.34-11.75l-0.22-.52c-3.5-2.35-6.74-5-8.83-8.79-2.34-4.21-3.39-9-5.22-13.43-0.17-.42.29-0.31,0.6-0.11,8.17,5.56,10.94,11.76,13.54,20.1a70.14,70.14,0,0,0-1.88-13.07c-2-7.93-5.72-15.72-11.69-21.44A0.24,0.24,0,0,1,59.07,302.57Z" transform="translate(-43.37 -43.29)"/><path class="cls-3" d="M56.68,304.16c-2.24.16-3.52,3.81-5.23,4.92a1.69,1.69,0,0,1-2.49-.3c-1.83-2.36.44-5.43,2.61-7.19-1.58.72-2.86,1.93-4.57,2.32a1.62,1.62,0,0,1-2.15-1.18c-0.89-3.27,3.2-4.9,6-5.08-1.41-.9-5.46-3.36-3.41-4.72s6.85,2.18,8.41,3.35c2.29,1.72,5,4.31,5.25,7.12C61.38,306.7,58.43,304.78,56.68,304.16Z" transform="translate(-43.37 -43.29)"/><path class="cls-4" d="M56.68,304.16c-2.24.16-3.52,3.81-5.23,4.92a1.69,1.69,0,0,1-2.49-.3c-1.83-2.36.44-5.43,2.61-7.19-1.58.72-2.86,1.93-4.57,2.32a1.62,1.62,0,0,1-2.15-1.18c-0.89-3.27,3.2-4.9,6-5.08-1.41-.9-5.46-3.36-3.41-4.72s6.85,2.18,8.41,3.35c2.29,1.72,5,4.31,5.25,7.12C61.38,306.7,58.43,304.78,56.68,304.16Z" transform="translate(-43.37 -43.29)"/><path class="cls-3" d="M57.35,304.69c-2.92-1.2-8.37.89-8.88-.18-1-2.18,3.32-3.86,5.69-4.25-2.21-.51-6.45-1.3-6.4-3.42,0.06-2.59,6.43-.61,9.7,1.71,4.12,2.92,4.21,5.89,3.57,6.51C60.15,305.91,57.83,304.88,57.35,304.69Z" transform="translate(-43.37 -43.29)"/><path class="cls-2" d="M72.93,335a133.25,133.25,0,0,0,4.21,19.43,0.48,0.48,0,0,0,.95-0.19c-0.89-6-2.51-11.86-3.4-17.85a89.87,89.87,0,0,1-1-18.33c0.57-10.09,3.31-20.82,9.89-28.72,0.14-.19-0.16-0.45-0.31-0.28C70,304.46,72.13,323.3,72.15,325c-1.87-6.36-3.79-13.66-10.85-20.13-0.3-.28-0.54-0.15-0.49.33,1.26,11.8,4.54,18,11.38,24.27C72.39,331.33,72.63,333.19,72.93,335Z" transform="translate(-43.37 -43.29)"/><path class="cls-3" d="M83.65,291.14c2.37-1.05,5.64,2,8,2.17A1.94,1.94,0,0,0,94,291.66c0.58-3.39-3.39-5.29-6.56-5.9,2-.12,4,0.41,5.91-0.12a1.87,1.87,0,0,0,1.55-2.37C94,279.46,89,280,86,281.38c0.95-1.69,3.74-6.38.91-6.65s-5.79,5.93-6.74,8c-1.4,3-2.79,7.12-1.48,10.1C80.23,296.27,82.2,292.72,83.65,291.14Z" transform="translate(-43.37 -43.29)"/><path class="cls-4" d="M83.65,291.14c2.37-1.05,5.64,2,8,2.17A1.94,1.94,0,0,0,94,291.66c0.58-3.39-3.39-5.29-6.56-5.9,2-.12,4,0.41,5.91-0.12a1.87,1.87,0,0,0,1.55-2.37C94,279.46,89,280,86,281.38c0.95-1.69,3.74-6.38.91-6.65s-5.79,5.93-6.74,8c-1.4,3-2.79,7.12-1.48,10.1C80.23,296.27,82.2,292.72,83.65,291.14Z" transform="translate(-43.37 -43.29)"/><path class="cls-3" d="M83.25,292c2.32-2.8,9-3.63,8.94-5-0.13-2.78-5.47-2.13-8.09-1.24,2-1.72,5.86-4.82,4.66-6.95-1.46-2.6-6.87,2.87-8.95,7-2.61,5.21-1.09,8.27-.11,8.56C81.07,294.81,82.87,292.5,83.25,292Z" transform="translate(-43.37 -43.29)"/><path class="cls-3" d="M64.25,338.58L58.44,383H93.81c-0.73-3.94-7.31-44.47-7.31-44.47Z" transform="translate(-43.37 -43.29)"/><polygon class="cls-2" points="0 339.85 51.66 339.61 103.31 339.52 206.63 339.35 309.94 339.52 361.6 339.6 413.25 339.85 361.6 340.09 309.94 340.18 206.63 340.35 103.31 340.18 51.66 340.09 0 339.85"/><ellipse class="cls-1" cx="206.63" cy="405.75" rx="149.06" ry="21.08"/><path class="cls-2" d="M157.57,227.67l-6.21-24.43-49,12.46-6.48-25.5L135,100.89,154.47,96l18.9,74.36,15.69-4L195.59,192l-15.69,4,6.21,24.43ZM124,182.87l24.25-6.16-8-31.56Z" transform="translate(-43.37 -43.29)"/><path class="cls-2" d="M298,146.12a65.54,65.54,0,0,1-3.68,22.35,55.48,55.48,0,0,1-10.12,17.66A45.82,45.82,0,0,1,269,197.73a43.93,43.93,0,0,1-19,4.14,44.51,44.51,0,0,1-19.13-4.14,45.5,45.5,0,0,1-15.27-11.59,54.09,54.09,0,0,1-10-17.66,71.43,71.43,0,0,1,0-44.71,54.09,54.09,0,0,1,10-17.66,46.61,46.61,0,0,1,15.27-11.68A43.71,43.71,0,0,1,250,90.19a43.14,43.14,0,0,1,19,4.23,47,47,0,0,1,15.18,11.68,55.49,55.49,0,0,1,10.12,17.66A65.55,65.55,0,0,1,298,146.12Zm-29.62,0q0-12.88-5.15-20.88t-13.25-8q-8.46,0-13.52,8t-5.06,20.88q0,12.88,5.06,20.79T250,174.82q8.1,0,13.25-7.91T268.4,146.12Z" transform="translate(-43.37 -43.29)"/><path class="cls-2" d="M350.84,223l4-24.88L304.93,190l4.21-26,71.51-66.33,19.8,3.21-12.27,75.74,16,2.59-4.24,26.15-16-2.59-4,24.88Zm-13-54.48,24.7,4,5.21-32.15Z" transform="translate(-43.37 -43.29)"/><path class="cls-2" d="M208.68,72.46A13,13,0,0,1,203,71.23a14,14,0,0,1-4.4-3.27,15.17,15.17,0,0,1-3.86-10,14.41,14.41,0,0,1,1.07-5.49,15.16,15.16,0,0,1,2.95-4.65,14.07,14.07,0,0,1,4.46-3.21,13.26,13.26,0,0,1,5.62-1.19,12.59,12.59,0,0,1,5.68,1.27A14.18,14.18,0,0,1,218.86,48a15.36,15.36,0,0,1,2.83,4.69,14.76,14.76,0,0,1,1,5.33,14.51,14.51,0,0,1-1.05,5.47,14.88,14.88,0,0,1-2.91,4.6,14,14,0,0,1-4.44,3.19A13.25,13.25,0,0,1,208.68,72.46Zm-8.32-14.54a11.52,11.52,0,0,0,.57,3.6,9.59,9.59,0,0,0,1.64,3.07,8.13,8.13,0,0,0,2.63,2.14,8.13,8.13,0,0,0,7.11,0,8.13,8.13,0,0,0,2.63-2.2,9.81,9.81,0,0,0,1.62-3.09,11.47,11.47,0,0,0,.55-3.49,11.19,11.19,0,0,0-.59-3.6,9.93,9.93,0,0,0-1.66-3.07,7.91,7.91,0,0,0-2.63-2.12,8.18,8.18,0,0,0-7.09,0,8,8,0,0,0-2.63,2.18,9.8,9.8,0,0,0-1.6,3.07A11.48,11.48,0,0,0,200.35,57.92Z" transform="translate(-43.37 -43.29)"/><path class="cls-2" d="M236.23,72.66a11.62,11.62,0,0,1-4.65-.89,10.42,10.42,0,0,1-3.49-2.4,10.61,10.61,0,0,1-2.2-3.49,11.77,11.77,0,0,1,0-8.36,10.6,10.6,0,0,1,2.2-3.49,10.43,10.43,0,0,1,3.49-2.4,11.63,11.63,0,0,1,4.65-.89,11.49,11.49,0,0,1,4.63.89,10.49,10.49,0,0,1,3.47,2.4,10.61,10.61,0,0,1,2.2,3.49,11.77,11.77,0,0,1,0,8.36,10.79,10.79,0,0,1-2.18,3.49,10.21,10.21,0,0,1-3.47,2.4A11.62,11.62,0,0,1,236.23,72.66Zm-5.53-10.95a7.37,7.37,0,0,0,.42,2.56,6.27,6.27,0,0,0,1.17,2A5.23,5.23,0,0,0,234,67.59a5.35,5.35,0,0,0,4.36,0,5.24,5.24,0,0,0,1.76-1.31,6.23,6.23,0,0,0,1.17-2,7.54,7.54,0,0,0,.42-2.59,7.43,7.43,0,0,0-.42-2.54,6.22,6.22,0,0,0-1.17-2,5.24,5.24,0,0,0-1.76-1.31,5.16,5.16,0,0,0-2.18-.46,5,5,0,0,0-2.18.48,5.48,5.48,0,0,0-1.76,1.33,6.22,6.22,0,0,0-1.17,2A7.43,7.43,0,0,0,230.69,61.72Z" transform="translate(-43.37 -43.29)"/><path class="cls-2" d="M263.61,72.66a8.34,8.34,0,0,1-4.36-1.11,7.9,7.9,0,0,1-2.91-3V80.86h-5.41V51.09h4.73v3.64a8.64,8.64,0,0,1,3-2.93A8.43,8.43,0,0,1,263,50.73a9.06,9.06,0,0,1,4,.87,9.8,9.8,0,0,1,3.13,2.34,10.93,10.93,0,0,1,2.06,3.47,12,12,0,0,1,.75,4.22,13.36,13.36,0,0,1-.69,4.32,11.06,11.06,0,0,1-1.92,3.51,9,9,0,0,1-2.93,2.34A8.19,8.19,0,0,1,263.61,72.66Zm-1.82-4.61a4.86,4.86,0,0,0,2.24-.53,5.42,5.42,0,0,0,1.76-1.41,6.64,6.64,0,0,0,1.13-2.06,7.37,7.37,0,0,0,.4-2.42,6.84,6.84,0,0,0-.44-2.48,6.18,6.18,0,0,0-1.23-2,5.74,5.74,0,0,0-1.86-1.33,5.56,5.56,0,0,0-2.32-.48,5.09,5.09,0,0,0-1.58.26,5.56,5.56,0,0,0-1.5.75,6.59,6.59,0,0,0-1.23,1.13,4.72,4.72,0,0,0-.83,1.41v5a7.2,7.2,0,0,0,2.22,3A5.08,5.08,0,0,0,261.8,68.06Z" transform="translate(-43.37 -43.29)"/><path class="cls-2" d="M284.54,72.66a16.38,16.38,0,0,1-5.21-.85A12.71,12.71,0,0,1,275,69.39L277,66a17.38,17.38,0,0,0,3.78,2.08,10.12,10.12,0,0,0,3.66.71,4.63,4.63,0,0,0,2.54-.61,2,2,0,0,0,.93-1.74,1.74,1.74,0,0,0-1.09-1.66,23.55,23.55,0,0,0-3.55-1.21q-2.06-.57-3.51-1.09a9,9,0,0,1-2.34-1.19,4.07,4.07,0,0,1-1.29-1.53,4.9,4.9,0,0,1-.4-2.08,6.58,6.58,0,0,1,.63-2.91,6.34,6.34,0,0,1,1.76-2.2,8.14,8.14,0,0,1,2.65-1.39,10.74,10.74,0,0,1,3.29-.48,14.15,14.15,0,0,1,4.46.69,10.88,10.88,0,0,1,3.82,2.22l-2.18,3.27A12.69,12.69,0,0,0,287,55.09a8.56,8.56,0,0,0-3-.57,4.36,4.36,0,0,0-2.3.57,2,2,0,0,0-.93,1.82,1.75,1.75,0,0,0,.22.93,2,2,0,0,0,.71.65,6.84,6.84,0,0,0,1.27.55q0.79,0.26,2,.55,2.18,0.57,3.74,1.13A10.19,10.19,0,0,1,291.18,62a4.61,4.61,0,0,1,1.46,1.68A5.17,5.17,0,0,1,293.1,66a5.89,5.89,0,0,1-2.3,4.91A9.91,9.91,0,0,1,284.54,72.66Z" transform="translate(-43.37 -43.29)"/><path class="cls-2" d="M297.67,61.47V43.29h5.41V61.47h-5.41Zm0,10.79v-6.1h5.41v6.1h-5.41Z" transform="translate(-43.37 -43.29)"/><rect class="cls-5" x="191.71" y="270.55" width="35.51" height="2.91"/><rect class="cls-5" x="191.71" y="274.34" width="35.51" height="2.91"/><rect class="cls-5" x="191.71" y="278.13" width="35.51" height="2.91"/><rect class="cls-5" x="191.71" y="281.92" width="35.51" height="2.91"/><rect class="cls-5" x="191.71" y="285.71" width="35.51" height="2.91"/><rect class="cls-5" x="175.08" y="361.3" width="67.52" height="2.91"/><rect class="cls-5" x="175.08" y="365.09" width="67.52" height="2.91"/><rect class="cls-5" x="175.08" y="368.88" width="67.52" height="2.91"/><rect class="cls-5" x="175.08" y="372.67" width="67.52" height="2.91"/><rect class="cls-5" x="175.08" y="376.46" width="67.52" height="2.91"/><path class="cls-3" d="M188.83,289.8c0-.39-14.78-5.35-14.78-5.35l0.87-50.89,19.64-4.21Z" transform="translate(-43.37 -43.29)"/><path class="cls-6" d="M188.83,289.8c0-.39-14.78-5.35-14.78-5.35l0.87-50.89,19.64-4.21Z" transform="translate(-43.37 -43.29)"/><path class="cls-3" d="M324.49,309.77c0.1-.38,15.72.06,15.72,0.06l16.69-48.08-17-10.72Z" transform="translate(-43.37 -43.29)"/><path class="cls-6" d="M324.49,309.77c0.1-.38,15.72.06,15.72,0.06l16.69-48.08-17-10.72Z" transform="translate(-43.37 -43.29)"/><path class="cls-3" d="M186,308.54s5.49-82.3,10.31-109.37c0,0,99.42,7.52,153.09,28,0,0-27.67,96.13-29.1,100.9C320.28,328.1,250.27,314.3,186,308.54Z" transform="translate(-43.37 -43.29)"/><path class="cls-4" d="M274.72,210.16q-2.42,14.86-4.94,29.71l-5.12,29.68-0.28-.42L297.69,277l16.64,4,16.62,4.11-16.71-3.74-16.69-3.82-33.34-7.79-0.34-.08,0.06-.34,5.31-29.65Q271.91,225,274.72,210.16Z" transform="translate(-43.37 -43.29)"/><path class="cls-4" d="M271.07,215.8a1.94,1.94,0,0,1-1.75,1.93,1.94,1.94,0,1,1,0-3.87A2,2,0,0,1,271.07,215.8Zm0,0a1.56,1.56,0,0,0-1.75-1.56,1.57,1.57,0,0,0,0,3.12A1.56,1.56,0,0,0,271.07,215.8Z" transform="translate(-43.37 -43.29)"/><path class="cls-4" d="M269.32,228a1.94,1.94,0,0,1-1.75,1.93,1.94,1.94,0,1,1,0-3.87A2,2,0,0,1,269.32,228Zm0,0a1.56,1.56,0,0,0-1.75-1.56,1.57,1.57,0,0,0,0,3.12A1.56,1.56,0,0,0,269.32,228Z" transform="translate(-43.37 -43.29)"/><path class="cls-4" d="M267.17,241a1.94,1.94,0,0,1-1.75,1.93,1.94,1.94,0,1,1,0-3.87A2,2,0,0,1,267.17,241Zm0,0a1.56,1.56,0,0,0-1.75-1.56,1.57,1.57,0,0,0,0,3.12A1.56,1.56,0,0,0,267.17,241Z" transform="translate(-43.37 -43.29)"/><path class="cls-4" d="M265,253.93a1.94,1.94,0,0,1-1.75,1.93,1.94,1.94,0,1,1,0-3.87A2,2,0,0,1,265,253.93Zm0,0a1.56,1.56,0,0,0-1.75-1.56,1.57,1.57,0,0,0,0,3.12A1.56,1.56,0,0,0,265,253.93Z" transform="translate(-43.37 -43.29)"/><path class="cls-4" d="M272.35,274.56a1.94,1.94,0,0,1-1.75,1.93,1.94,1.94,0,1,1,0-3.87A2,2,0,0,1,272.35,274.56Zm0,0A1.56,1.56,0,0,0,270.6,273a1.57,1.57,0,0,0,0,3.12A1.56,1.56,0,0,0,272.35,274.56Z" transform="translate(-43.37 -43.29)"/><path class="cls-4" d="M284.56,277.54a1.94,1.94,0,0,1-1.75,1.93,1.94,1.94,0,1,1,0-3.87A2,2,0,0,1,284.56,277.54Zm0,0a1.56,1.56,0,0,0-1.75-1.56,1.57,1.57,0,0,0,0,3.12A1.56,1.56,0,0,0,284.56,277.54Z" transform="translate(-43.37 -43.29)"/><path class="cls-4" d="M296.77,280.52a1.94,1.94,0,0,1-1.75,1.93,1.94,1.94,0,1,1,0-3.87A2,2,0,0,1,296.77,280.52Zm0,0A1.56,1.56,0,0,0,295,279a1.57,1.57,0,0,0,0,3.12A1.56,1.56,0,0,0,296.77,280.52Z" transform="translate(-43.37 -43.29)"/><path class="cls-4" d="M309,283.5a1.94,1.94,0,0,1-1.75,1.93,1.94,1.94,0,1,1,0-3.87A2,2,0,0,1,309,283.5Zm0,0a1.56,1.56,0,0,0-1.75-1.56,1.57,1.57,0,0,0,0,3.12A1.56,1.56,0,0,0,309,283.5Z" transform="translate(-43.37 -43.29)"/><path class="cls-4" d="M321.2,286.61a1.94,1.94,0,0,1-1.89,1.79,1.94,1.94,0,1,1,.3-3.86A2,2,0,0,1,321.2,286.61Zm0,0a1.56,1.56,0,0,0-1.62-1.69,1.57,1.57,0,0,0-.24,3.11A1.56,1.56,0,0,0,321.2,286.61Z" transform="translate(-43.37 -43.29)"/><path class="cls-4" d="M262.87,266.86a1.94,1.94,0,0,1-1.75,1.93,1.94,1.94,0,1,1,0-3.87A2,2,0,0,1,262.87,266.86Zm0,0a1.56,1.56,0,0,0-1.75-1.56,1.57,1.57,0,0,0,0,3.12A1.56,1.56,0,0,0,262.87,266.86Z" transform="translate(-43.37 -43.29)"/><circle class="cls-6" cx="223.43" cy="267.31" r="28.23" transform="translate(-119.54 401.82) rotate(-80.8)"/><circle class="cls-2" cx="223.43" cy="267.31" r="22.64" transform="translate(-119.54 401.82) rotate(-80.8)"/><rect class="cls-3" x="216.31" y="258.54" width="5.36" height="5.36" transform="translate(1.22 -74.95) rotate(9.2)"/><rect class="cls-3" x="211.87" y="252.39" width="5.36" height="5.36" transform="translate(0.18 -74.32) rotate(9.2)"/><rect class="cls-3" x="233.04" y="255.82" width="5.36" height="5.36" transform="translate(1 -77.66) rotate(9.2)"/><rect class="cls-3" x="208.46" y="273.44" width="5.36" height="5.36" transform="translate(3.5 -73.51) rotate(9.2)"/><rect class="cls-3" x="229.63" y="276.87" width="5.36" height="5.36" transform="translate(4.32 -76.85) rotate(9.2)"/><rect class="cls-3" x="214.61" y="269" width="5.36" height="5.36" transform="translate(2.87 -74.55) rotate(9.2)"/><rect class="cls-3" x="220.75" y="264.63" width="5.36" height="5.36" transform="translate(2.25 -75.59) rotate(9.2)"/><rect class="cls-3" x="226.89" y="260.25" width="5.36" height="5.36" transform="translate(1.63 -76.62) rotate(9.2)"/><rect class="cls-3" x="225.2" y="270.72" width="5.36" height="5.36" transform="translate(3.29 -76.22) rotate(9.2)"/><circle class="cls-3" cx="299.19" cy="279.14" r="28.23" transform="translate(-84.94 462.39) rotate(-76.63)"/><circle class="cls-6" cx="299.19" cy="279.14" r="28.23" transform="translate(-84.94 462.39) rotate(-76.63)"/><path class="cls-6" d="M326.66,285.67c-0.13.56-.28,1.09-0.44,1.63l-55-11.74c0.13-1,.31-2,0.54-3A28.23,28.23,0,1,1,326.66,285.67Z" transform="translate(-43.37 -43.29)"/><circle class="cls-2" cx="299.19" cy="279.14" r="22.64" transform="translate(-84.94 462.39) rotate(-76.63)"/><rect class="cls-3" x="296.51" y="265.8" width="5.36" height="26.69" transform="translate(29.28 -104.91) rotate(13.37)"/><path class="cls-3" d="M328.3,285.14L270.5,271.4A29.71,29.71,0,0,1,328.3,285.14Z" transform="translate(-43.37 -43.29)"/><path class="cls-6" d="M328.3,285.14L270.5,271.4A29.71,29.71,0,0,1,328.3,285.14Z" transform="translate(-43.37 -43.29)"/><path class="cls-4" d="M250.07,295.92a10.46,10.46,0,0,1,2.61-6.36,7.64,7.64,0,0,1,3.07-2.06,8.62,8.62,0,0,1,3.7-.41,6.89,6.89,0,0,1,5.8,4.33,11.57,11.57,0,0,1,.59,6.85,18.15,18.15,0,0,0-2-6.14,5.88,5.88,0,0,0-4.61-3.06,7,7,0,0,0-5.48,1.6A14.82,14.82,0,0,0,250.07,295.92Z" transform="translate(-43.37 -43.29)"/><path class="cls-7" d="M193.72,238.34c0.23-3,.57-6,0.86-9s0.65-6,1-9,0.74-6,1.12-9,0.81-6,1.21-9l0.11-.8,0.81,0.05q9.77,0.61,19.5,1.6,4.87,0.5,9.72,1.13c3.23,0.46,6.47.89,9.68,1.48l-19.52-1.21-19.5-1.26,0.92-.75c-0.44,3-.85,6-1.32,9s-0.92,6-1.41,8.95-1,6-1.52,8.93S194.33,235.38,193.72,238.34Z" transform="translate(-43.37 -43.29)"/><path class="cls-7" d="M198.41,261.16a24.64,24.64,0,0,1,4.52-10.09c0.55-.76,1.18-1.46,1.78-2.18s1.33-1.33,2-2,1.47-1.18,2.22-1.75,1.58-1,2.39-1.52,1.7-.83,2.56-1.22l2.68-.93,2.78-.57c0.93-.14,1.88-0.16,2.81-0.24A27.22,27.22,0,0,1,233,242.76a38.69,38.69,0,0,0-10.78-.71,25.33,25.33,0,0,0-10.07,3.13,29.4,29.4,0,0,0-8.18,6.75A33.3,33.3,0,0,0,198.41,261.16Z" transform="translate(-43.37 -43.29)"/><path class="cls-7" d="M276.29,268.78a24.64,24.64,0,0,1,5.87-9.37c0.65-.67,1.37-1.28,2.06-1.91s1.5-1.13,2.26-1.69,1.62-1,2.44-1.43,1.71-.8,2.58-1.17,1.8-.59,2.71-0.86l2.78-.55,2.83-.18c0.94,0,1.88.1,2.82,0.16a27.21,27.21,0,0,1,10.48,3.56,38.68,38.68,0,0,0-10.58-2.2,25.33,25.33,0,0,0-10.41,1.71,29.4,29.4,0,0,0-9,5.55A33.3,33.3,0,0,0,276.29,268.78Z" transform="translate(-43.37 -43.29)"/><path class="cls-3" d="M189.14,359.25c-7.23,0-23.06-1.63-33.25-14.73-13-16.76-8.32-48.91-8.12-50.28l5.66,0.86c0,0.31-4.54,31.09,7,45.9,11.26,14.48,31.69,12.4,31.9,12.38l0.64,5.69A35.93,35.93,0,0,1,189.14,359.25Z" transform="translate(-43.37 -43.29)"/><path class="cls-8" d="M189.14,359.25c-7.23,0-23.06-1.63-33.25-14.73-13-16.76-8.32-48.91-8.12-50.28l5.66,0.86c0,0.31-4.54,31.09,7,45.9,11.26,14.48,31.69,12.4,31.9,12.38l0.64,5.69A35.93,35.93,0,0,1,189.14,359.25Z" transform="translate(-43.37 -43.29)"/><path class="cls-3" d="M155.1,299a19.68,19.68,0,0,1-3.16-.26c-9.55-1.55-13.77-7.26-15.64-11.78S134,277,135,270.68l12.11,2c-0.63,3.89-.45,7.31.52,9.65,0.69,1.66,2,3.66,6.26,4.35,1.94,0.31,4,.15,6.23-3.16a22.88,22.88,0,0,0,3.07-8.23l12.11,2a35.44,35.44,0,0,1-5,13C166.56,296,161.22,299,155.1,299Z" transform="translate(-43.37 -43.29)"/><path class="cls-3" d="M201.1,375.63c0-.26-10.26-1.9-10.26-1.9l-5-33.41,12.4-4.9Z" transform="translate(-43.37 -43.29)"/><path class="cls-6" d="M201.1,375.63c0-.26-10.26-1.9-10.26-1.9l-5-33.41,12.4-4.9Z" transform="translate(-43.37 -43.29)"/><path class="cls-3" d="M302.3,375.69c0-.26,10.3-1.67,10.3-1.67l5.71-33.29L306,335.57Z" transform="translate(-43.37 -43.29)"/><path class="cls-6" d="M302.3,375.69c0-.26,10.3-1.67,10.3-1.67l5.71-33.29L306,335.57Z" transform="translate(-43.37 -43.29)"/><path class="cls-3" d="M196.84,328s82.79-3.54,110.75,1.12c0,0-8.21,80.11-8.66,81.66,0,0-82.35-.22-95.22,0C203.71,410.74,196.74,357.47,196.84,328Z" transform="translate(-43.37 -43.29)"/><path class="cls-6" d="M222,349.91s45.19-1.78,60.46.57c0,0-4.48,40.39-4.73,41.18,0,0-45-.11-52,0C225.74,391.65,222.65,364,222,349.91Z" transform="translate(-43.37 -43.29)"/><path class="cls-6" d="M228.16,391.63l-2.43,0S222.65,364,222,349.9l2.82-.1Z" transform="translate(-43.37 -43.29)"/><path class="cls-3" d="M241.49,359.87a4.81,4.81,0,1,0,3.14,6A4.81,4.81,0,0,0,241.49,359.87Zm2.58,5.85a4.22,4.22,0,1,1-2.75-5.29A4.22,4.22,0,0,1,244.07,365.73Zm-2.58-5.85a4.81,4.81,0,1,0,3.14,6A4.81,4.81,0,0,0,241.49,359.87Zm2.58,5.85a4.22,4.22,0,1,1-2.75-5.29A4.22,4.22,0,0,1,244.07,365.73Zm-2.58-5.85a4.81,4.81,0,1,0,3.14,6A4.81,4.81,0,0,0,241.49,359.87Zm2.58,5.85a4.22,4.22,0,1,1-2.75-5.29A4.22,4.22,0,0,1,244.07,365.73Zm-1-10.93a10.13,10.13,0,1,0,6.61,12.71A10.14,10.14,0,0,0,243.1,354.79Zm2.25,11.33a5.55,5.55,0,1,1-3.63-7A5.56,5.56,0,0,1,245.35,366.13Zm-0.71-.22a4.81,4.81,0,1,0-6,3.14A4.81,4.81,0,0,0,244.63,365.9Zm-0.56-.18a4.22,4.22,0,1,1-2.75-5.29A4.22,4.22,0,0,1,244.07,365.73Zm-2.58-5.85a4.81,4.81,0,1,0,3.14,6A4.81,4.81,0,0,0,241.49,359.87Zm2.58,5.85a4.22,4.22,0,1,1-2.75-5.29A4.22,4.22,0,0,1,244.07,365.73Zm-2.58-5.85a4.81,4.81,0,1,0,3.14,6A4.81,4.81,0,0,0,241.49,359.87Zm2.58,5.85a4.22,4.22,0,1,1-2.75-5.29A4.22,4.22,0,0,1,244.07,365.73Z" transform="translate(-43.37 -43.29)"/><polygon class="cls-3" points="195.61 331.01 191.9 329.84 191.28 332.54 194.58 333.58 195.61 331.01"/><polygon class="cls-3" points="188.94 327.53 187.14 324.07 184.79 325.54 186.39 328.61 188.94 327.53"/><polygon class="cls-3" points="186.68 320.35 187.85 316.63 185.15 316.01 184.11 319.31 186.68 320.35"/><polygon class="cls-3" points="190.16 313.67 193.61 311.87 192.15 309.52 189.07 311.13 190.16 313.67"/><polygon class="cls-3" points="197.34 311.41 201.05 312.58 201.68 309.89 198.37 308.84 197.34 311.41"/><polygon class="cls-3" points="204.02 314.89 205.81 318.35 208.16 316.88 206.56 313.81 204.02 314.89"/><polygon class="cls-3" points="206.28 322.07 205.11 325.79 207.8 326.41 208.84 323.11 206.28 322.07"/><polygon class="cls-3" points="202.8 328.75 199.34 330.55 200.81 332.89 203.88 331.3 202.8 328.75"/><path class="cls-9" d="M257.84,374a3.24,3.24,0,1,0,.94,4.48A3.24,3.24,0,0,0,257.84,374Zm0.61,4.26a2.84,2.84,0,1,1-.83-3.93A2.84,2.84,0,0,1,258.45,378.27ZM257.84,374a3.24,3.24,0,1,0,.94,4.48A3.24,3.24,0,0,0,257.84,374Zm0.61,4.26a2.84,2.84,0,1,1-.83-3.93A2.84,2.84,0,0,1,258.45,378.27ZM257.84,374a3.24,3.24,0,1,0,.94,4.48A3.24,3.24,0,0,0,257.84,374Zm0.61,4.26a2.84,2.84,0,1,1-.83-3.93A2.84,2.84,0,0,1,258.45,378.27Zm1.34-7.27a6.82,6.82,0,1,0,2,9.44A6.82,6.82,0,0,0,259.79,371Zm-0.59,7.76a3.74,3.74,0,1,1-1.09-5.17A3.74,3.74,0,0,1,259.2,378.76Zm-0.42-.27a3.24,3.24,0,1,0-4.48.95A3.24,3.24,0,0,0,258.78,378.49Zm-0.33-.22a2.84,2.84,0,1,1-.83-3.93A2.84,2.84,0,0,1,258.45,378.27ZM257.84,374a3.24,3.24,0,1,0,.94,4.48A3.24,3.24,0,0,0,257.84,374Zm0.61,4.26a2.84,2.84,0,1,1-.83-3.93A2.84,2.84,0,0,1,258.45,378.27ZM257.84,374a3.24,3.24,0,1,0,.94,4.48A3.24,3.24,0,0,0,257.84,374Zm0.61,4.26a2.84,2.84,0,1,1-.83-3.93A2.84,2.84,0,0,1,258.45,378.27Z" transform="translate(-43.37 -43.29)"/><polygon class="cls-9" points="210.23 339.62 208.03 338.19 207.14 339.83 209.09 341.1 210.23 339.62"/><polygon class="cls-9" points="206.53 336.16 205.98 333.59 204.2 334.12 204.68 336.4 206.53 336.16"/><polygon class="cls-9" points="206.36 331.09 207.79 328.89 206.15 328 204.88 329.96 206.36 331.09"/><polygon class="cls-9" points="209.82 327.39 212.39 326.85 211.86 325.06 209.58 325.55 209.82 327.39"/><polygon class="cls-9" points="214.89 327.22 217.09 328.65 217.98 327.02 216.02 325.75 214.89 327.22"/><polygon class="cls-9" points="218.59 330.69 219.13 333.25 220.92 332.73 220.44 330.45 218.59 330.69"/><polygon class="cls-9" points="218.76 335.76 217.33 337.95 218.96 338.85 220.23 336.89 218.76 335.76"/><polygon class="cls-9" points="215.29 339.46 212.73 340 213.25 341.79 215.53 341.3 215.29 339.46"/><polygon class="cls-3" points="262.22 358.12 265.4 358.71 274.5 297.08 270.88 296.42 262.22 358.12"/><path class="cls-3" d="M277.72,391.65l4.73-41.18,31.8-10.76s-8.66,62.37-8.66,61.7Z" transform="translate(-43.37 -43.29)"/><path class="cls-8" d="M277.72,391.65l4.73-41.18,31.8-10.76s-8.66,62.37-8.66,61.7Z" transform="translate(-43.37 -43.29)"/><path class="cls-7" d="M200.64,352.14c-0.52-3.41-.8-6.85-1-10.29-0.1-1.72-.14-3.45-0.18-5.17s-0.06-3.45,0-5.17V331l0.44,0c6.32-.34,12.63-0.75,19-1s12.64-.6,19-0.79c-6.3.57-12.61,1.06-18.92,1.51s-12.62.85-18.93,1.28l0.45-.48,0,5.15,0.06,5.15q0,2.58.09,5.16Z" transform="translate(-43.37 -43.29)"/><path class="cls-7" d="M286.88,351.08q3-1.4,6-2.61c2-.82,4.06-1.6,6.12-2.31s4.13-1.39,6.24-2a58.37,58.37,0,0,1,6.39-1.49l0.53-.09-0.1.51c-0.5,2.67-1,5.33-1.64,8,0.23-2.71.56-5.4,0.91-8.09l0.44,0.42c-2.1.5-4.18,1.09-6.26,1.7s-4.15,1.27-6.21,1.95Z" transform="translate(-43.37 -43.29)"/><polygon class="cls-4" points="171.03 284.83 171.56 295.13 172.02 305.43 172.82 326.04 173.44 346.65 173.69 356.96 173.86 367.27 173.32 356.97 172.86 346.67 172.07 326.06 171.45 305.45 171.2 295.14 171.03 284.83"/><path class="cls-4" d="M211.45,334.33a1.94,1.94,0,0,1-1.33,2.24,1.94,1.94,0,1,1-.76-3.79A2,2,0,0,1,211.45,334.33Zm0,0a1.56,1.56,0,0,0-2-1.18,1.57,1.57,0,0,0,.62,3.05A1.56,1.56,0,0,0,211.45,334.33Z" transform="translate(-43.37 -43.29)"/><path class="cls-4" d="M212.16,346.68a1.94,1.94,0,0,1-1.33,2.24,1.94,1.94,0,1,1-.76-3.79A2,2,0,0,1,212.16,346.68Zm0,0a1.56,1.56,0,0,0-2-1.18,1.57,1.57,0,0,0,.62,3.06A1.56,1.56,0,0,0,212.16,346.68Z" transform="translate(-43.37 -43.29)"/><path class="cls-4" d="M212.61,359.79a1.94,1.94,0,0,1-1.33,2.24,1.94,1.94,0,1,1-.76-3.79A2,2,0,0,1,212.61,359.79Zm0,0a1.56,1.56,0,0,0-2-1.18,1.57,1.57,0,0,0,.62,3.05A1.56,1.56,0,0,0,212.61,359.79Z" transform="translate(-43.37 -43.29)"/><path class="cls-4" d="M213.06,372.9a1.94,1.94,0,0,1-1.33,2.24,1.94,1.94,0,1,1-.76-3.79A2,2,0,0,1,213.06,372.9Zm0,0a1.56,1.56,0,0,0-2-1.18,1.57,1.57,0,0,0,.62,3.05A1.56,1.56,0,0,0,213.06,372.9Z" transform="translate(-43.37 -43.29)"/><path class="cls-4" d="M213.51,386a1.94,1.94,0,0,1-1.33,2.24,1.94,1.94,0,1,1-.76-3.79A2,2,0,0,1,213.51,386Zm0,0a1.56,1.56,0,0,0-2-1.18,1.57,1.57,0,0,0,.62,3.05A1.56,1.56,0,0,0,213.51,386Z" transform="translate(-43.37 -43.29)"/><path class="cls-4" d="M214,399.11a1.94,1.94,0,0,1-1.33,2.24,1.94,1.94,0,1,1-.76-3.79A2,2,0,0,1,214,399.11Zm0,0a1.56,1.56,0,0,0-2-1.18,1.57,1.57,0,0,0,.62,3.06A1.56,1.56,0,0,0,214,399.11Z" transform="translate(-43.37 -43.29)"/><rect class="cls-3" x="170.93" y="426.13" width="48.98" height="5.72" transform="translate(-159.4 31.83) rotate(-16.86)"/><rect class="cls-8" x="170.93" y="426.13" width="48.98" height="5.72" transform="translate(-159.4 31.83) rotate(-16.86)"/><rect class="cls-3" x="191.27" y="424.75" width="5.72" height="8.5" transform="translate(-164.27 35.73) rotate(-17.64)"/><polygon class="cls-3" points="129.05 403.57 116.96 351.19 80.45 359.85 98.42 410.89 129.05 403.57"/><polygon class="cls-3" points="137.15 400.9 129.05 403.57 116.96 351.19 128.61 353.96 137.15 400.9"/><polygon class="cls-6" points="137.15 400.9 129.05 403.57 116.96 351.19 128.61 353.96 137.15 400.9"/><circle class="cls-3" cx="175.49" cy="378.6" r="6.21"/><rect class="cls-3" x="302.54" y="404.41" width="5.72" height="48.98" transform="translate(-237.36 552.45) rotate(-73.02)"/><rect class="cls-8" x="302.54" y="404.41" width="5.72" height="48.98" transform="translate(-237.36 552.45) rotate(-73.02)"/><rect class="cls-3" x="302.44" y="426.04" width="8.5" height="5.72" transform="translate(-238.73 546.75) rotate(-72.23)"/><polygon class="cls-3" points="284.98 403.52 297.19 351.17 333.68 359.9 315.6 410.91 284.98 403.52"/><polygon class="cls-3" points="276.89 400.84 284.98 403.52 297.19 351.17 285.53 353.92 276.89 400.84"/><polygon class="cls-6" points="276.89 400.84 284.98 403.52 297.19 351.17 285.53 353.92 276.89 400.84"/><circle class="cls-3" cx="281.98" cy="421.75" r="6.21" transform="translate(-183.74 659.54) rotate(-89.88)"/><path class="cls-3" d="M322.66,357.13c0.15-.14,15.2-14.1,32.91-9.33,18.11,4.89,33.07,32.17,33.21,32.44l5-2.72c-0.65-1.21-16.25-29.72-36.76-35.25-20.86-5.62-37.64,10-38.35,10.7Z" transform="translate(-43.37 -43.29)"/><path class="cls-8" d="M322.66,357.13c0.15-.14,15.2-14.1,32.91-9.33,18.11,4.89,33.07,32.17,33.21,32.44l5-2.72c-0.65-1.21-16.25-29.72-36.76-35.25-20.86-5.62-37.64,10-38.35,10.7Z" transform="translate(-43.37 -43.29)"/><path class="cls-3" d="M382.12,407.71L393,402a22.88,22.88,0,0,1-2.51-8.42c-0.24-4,1.33-5.36,3.07-6.27,3.8-2,6.07-1.21,7.62-.3,2.17,1.28,4.38,3.91,6.22,7.39l10.85-5.73c-3-5.62-6.61-9.74-10.83-12.23s-11-4.5-19.58,0c-6.67,3.52-10.07,9.86-9.58,17.86A35.46,35.46,0,0,0,382.12,407.71Z" transform="translate(-43.37 -43.29)"/><path class="cls-2" d="M324.95,338c2.35-1.62,4.76-3.15,7.17-4.67s4.86-3,7.31-4.44,4.92-2.87,7.42-4.24l3.75-2c1.27-.65,2.52-1.33,3.81-2-1.17.82-2.37,1.59-3.56,2.38l-3.61,2.29c-2.41,1.52-4.86,3-7.31,4.44s-4.92,2.87-7.43,4.24S327.51,336.75,324.95,338Z" transform="translate(-43.37 -43.29)"/><path class="cls-2" d="M318.72,361.42c3.37,1.92,6.56,4.08,9.7,6.31s6.22,4.56,9.12,7.12c-3.37-1.92-6.56-4.08-9.7-6.31S321.63,364,318.72,361.42Z" transform="translate(-43.37 -43.29)"/><path class="cls-2" d="M324.25,358.54c2.6,0.79,5.16,1.68,7.71,2.59S337,363,339.57,364s5,2,7.53,3.05l3.73,1.6c1.23,0.57,2.48,1.1,3.7,1.7-1.3-.39-2.58-0.83-3.87-1.24l-3.83-1.34c-2.56-.9-5.08-1.87-7.61-2.84s-5-2-7.53-3.05S326.7,359.72,324.25,358.54Z" transform="translate(-43.37 -43.29)"/><path class="cls-2" d="M331.63,340.22c2.49-.65,5-1.19,7.51-1.71s5-1,7.56-1.45,5.06-.86,7.6-1.22l3.81-.53c1.28-.14,2.55-0.31,3.83-0.42-1.24.33-2.5,0.6-3.75,0.91l-3.76.8c-2.51.53-5,1-7.56,1.45s-5.06.86-7.6,1.22S334.19,340,331.63,340.22Z" transform="translate(-43.37 -43.29)"/><path class="cls-2" d="M271.62,355.79a26.88,26.88,0,0,1,2-5.87,23.81,23.81,0,0,1,3.3-5.28,12.81,12.81,0,0,1,5-3.75,8.86,8.86,0,0,1,6.31.06,8.41,8.41,0,0,1,4.5,4.47,10.07,10.07,0,0,1,.85,3.11,6.94,6.94,0,0,1-.37,3.27,3,3,0,0,1-1.1,1.42,2.17,2.17,0,0,1-.9.34,2.05,2.05,0,0,1-1-.09,2.8,2.8,0,0,1-1.29-1.31,7.6,7.6,0,0,1-.59-1.54,20.36,20.36,0,0,1-.52-6.31,25.94,25.94,0,0,1,3.65-12,15.66,15.66,0,0,1,4.34-4.61,13.19,13.19,0,0,1,5.89-2.27,16.7,16.7,0,0,1,3.14-.28,22.14,22.14,0,0,1,3.14.31,19.19,19.19,0,0,1,5.85,2.22,24.41,24.41,0,0,1,4.9,3.84,26,26,0,0,1,3.86,4.85,27,27,0,0,0-9-8.27,18.79,18.79,0,0,0-5.73-2,21.54,21.54,0,0,0-3-.23,16,16,0,0,0-3,.33,13,13,0,0,0-5.53,2.22,14.78,14.78,0,0,0-4.06,4.39,25,25,0,0,0-3.42,11.54,19.45,19.45,0,0,0,.44,6,3.52,3.52,0,0,0,1.3,2.24,2.28,2.28,0,0,0,.23.05,1.8,1.8,0,0,0,.3,0,1.24,1.24,0,0,0,.53-0.2,2.11,2.11,0,0,0,.76-1,6.08,6.08,0,0,0,.33-2.83,9.2,9.2,0,0,0-.75-2.85,7.82,7.82,0,0,0-4-4.11,8.16,8.16,0,0,0-5.8-.18,12.36,12.36,0,0,0-4.87,3.48A27,27,0,0,0,271.62,355.79Z" transform="translate(-43.37 -43.29)"/><path class="cls-2" d="M179.22,381.7a14.19,14.19,0,0,1,4-4.64,15,15,0,0,1,5.6-2.68,12,12,0,0,1,6.25.12,12.48,12.48,0,0,1,5.34,3.32,15.79,15.79,0,0,1,3.34,5.33,14.59,14.59,0,0,1,1,6.23,5.16,5.16,0,0,1-1.16,3.12,2.42,2.42,0,0,1-1.68.76,3.61,3.61,0,0,1-1.72-.39,2.84,2.84,0,0,1-1.24-1.32,4.4,4.4,0,0,1-.38-1.68,9.22,9.22,0,0,1,.53-3.2,18.5,18.5,0,0,1,3.06-5.51,22.23,22.23,0,0,1,4.53-4.35,16.89,16.89,0,0,1,11.91-3.28,15.86,15.86,0,0,1,10.68,6,21.89,21.89,0,0,1,3.08,5.38,24.92,24.92,0,0,1,1.63,5.95,24.94,24.94,0,0,0-5.11-11,15.66,15.66,0,0,0-4.65-3.82,15.37,15.37,0,0,0-5.73-1.72,16.24,16.24,0,0,0-11.28,3.23,20.51,20.51,0,0,0-7.19,9.42,8.29,8.29,0,0,0-.5,2.85,2.42,2.42,0,0,0,1.1,2.21,2.71,2.71,0,0,0,1.25.29,1.49,1.49,0,0,0,1.05-.47,4.34,4.34,0,0,0,.92-2.56,13.74,13.74,0,0,0-.95-5.84,15.52,15.52,0,0,0-3.12-5.08,11.87,11.87,0,0,0-5-3.22,11.39,11.39,0,0,0-5.93-.26A15.37,15.37,0,0,0,179.22,381.7Z" transform="translate(-43.37 -43.29)"/><path class="cls-2" d="M133,140.21a27,27,0,0,0-2.9-11.87,12.36,12.36,0,0,0-3.9-4.55,8.16,8.16,0,0,0-5.68-1.21,7.82,7.82,0,0,0-4.88,3,9.2,9.2,0,0,0-1.41,2.58,6.08,6.08,0,0,0-.36,2.83,2.11,2.11,0,0,0,.5,1.14,1.24,1.24,0,0,0,.47.32,1.8,1.8,0,0,0,.28.08,2.31,2.31,0,0,0,.24,0,3.52,3.52,0,0,0,1.8-1.86A19.45,19.45,0,0,0,119,125a25,25,0,0,0-.57-12,14.78,14.78,0,0,0-2.9-5.23,13,13,0,0,0-4.84-3.48,16,16,0,0,0-2.84-1,21.53,21.53,0,0,0-3-.5,18.79,18.79,0,0,0-6,.6,27,27,0,0,0-10.71,5.88,26,26,0,0,1,4.9-3.79,24.41,24.41,0,0,1,5.68-2.56,19.19,19.19,0,0,1,6.21-.75,22.15,22.15,0,0,1,3.12.45,16.7,16.7,0,0,1,3,1,13.19,13.19,0,0,1,5.18,3.61,15.67,15.67,0,0,1,3.11,5.51,25.94,25.94,0,0,1,.69,12.49,20.36,20.36,0,0,1-2,6,7.6,7.6,0,0,1-.94,1.36,2.8,2.8,0,0,1-1.57,1,2.05,2.05,0,0,1-1-.15,2.17,2.17,0,0,1-.8-0.54,3,3,0,0,1-.74-1.64,6.94,6.94,0,0,1,.42-3.26,10.07,10.07,0,0,1,1.56-2.82,8.41,8.41,0,0,1,5.44-3.26,8.86,8.86,0,0,1,6.14,1.45,12.82,12.82,0,0,1,4,4.84,23.81,23.81,0,0,1,1.95,5.92A26.89,26.89,0,0,1,133,140.21Z" transform="translate(-43.37 -43.29)"/><path class="cls-2" d="M353.77,192.37a27,27,0,0,0-12.22.05,12.36,12.36,0,0,0-5.33,2.73,8.16,8.16,0,0,0-2.5,5.24,7.82,7.82,0,0,0,1.82,5.45,9.2,9.2,0,0,0,2.18,2,6.08,6.08,0,0,0,2.66,1,2.11,2.11,0,0,0,1.23-.22,1.24,1.24,0,0,0,.42-0.38,1.81,1.81,0,0,0,.14-0.26,2.33,2.33,0,0,0,.06-0.23,3.51,3.51,0,0,0-1.39-2.19,19.45,19.45,0,0,0-5.12-3.14,25,25,0,0,0-11.82-2.25,14.78,14.78,0,0,0-5.76,1.6,13,13,0,0,0-4.51,3.9,16,16,0,0,0-1.68,2.52,21.53,21.53,0,0,0-1.18,2.79,18.79,18.79,0,0,0-.83,6,27,27,0,0,0,3.22,11.79,26,26,0,0,1-2.54-5.65,24.41,24.41,0,0,1-1.17-6.12,19.19,19.19,0,0,1,.72-6.22,22.16,22.16,0,0,1,1.16-2.93,16.71,16.71,0,0,1,1.69-2.67,13.19,13.19,0,0,1,4.72-4.19,15.67,15.67,0,0,1,6.09-1.74,25.94,25.94,0,0,1,12.3,2.24,20.37,20.37,0,0,1,5.37,3.36,7.6,7.6,0,0,1,1.1,1.23,2.8,2.8,0,0,1,.57,1.75,2.06,2.06,0,0,1-.37.93,2.17,2.17,0,0,1-.72.65,3,3,0,0,1-1.76.33,6.94,6.94,0,0,1-3.07-1.17,10.07,10.07,0,0,1-2.38-2.18,8.41,8.41,0,0,1-1.9-6.05,8.86,8.86,0,0,1,2.84-5.64,12.81,12.81,0,0,1,5.64-2.74,23.8,23.8,0,0,1,6.21-.51A26.89,26.89,0,0,1,353.77,192.37Z" transform="translate(-43.37 -43.29)"/><path class="cls-2" d="M291.86,127.67a17.05,17.05,0,0,1-.39-7.35,18,18,0,0,1,2.57-7,14.32,14.32,0,0,1,5.45-5.1,14.88,14.88,0,0,1,7.32-1.6,18.88,18.88,0,0,1,7.29,1.76,17.4,17.4,0,0,1,6.07,4.45,6.1,6.1,0,0,1,1.6,3.59,2.81,2.81,0,0,1-.78,2,4.24,4.24,0,0,1-1.76,1.08,3.3,3.3,0,0,1-2.11-.09,5.18,5.18,0,0,1-1.7-1.11,11,11,0,0,1-2.2-3.16,22.17,22.17,0,0,1-2-7.25,26.53,26.53,0,0,1,.23-7.49,20.17,20.17,0,0,1,7.42-12.73A18.93,18.93,0,0,1,333,83.91a26.22,26.22,0,0,1,7.14,2,30,30,0,0,1,6.39,3.7A29.81,29.81,0,0,0,333,84.42a18.81,18.81,0,0,0-7.2.6,18.78,18.78,0,0,0-11,8.79,21.18,21.18,0,0,0-2.36,6.8,24.61,24.61,0,0,0,1.73,14.15,10,10,0,0,0,2,2.89,3,3,0,0,0,2.88,1,3.33,3.33,0,0,0,1.35-.82,1.87,1.87,0,0,0,.53-1.35,5.27,5.27,0,0,0-1.38-3,16.54,16.54,0,0,0-5.73-4.23,18.61,18.61,0,0,0-7-1.74,14.28,14.28,0,0,0-7,1.42,13.7,13.7,0,0,0-5.31,4.77A18.4,18.4,0,0,0,291.86,127.67Z" transform="translate(-43.37 -43.29)"/><path class="cls-10" d="M175.87,381.92a4.25,4.25,0,1,0,2.77,5.33A4.25,4.25,0,0,0,175.87,381.92Zm2.28,5.18a3.73,3.73,0,1,1-2.44-4.68A3.73,3.73,0,0,1,178.16,387.1Zm-2.28-5.18a4.25,4.25,0,1,0,2.77,5.33A4.25,4.25,0,0,0,175.87,381.92Zm2.28,5.18a3.73,3.73,0,1,1-2.44-4.68A3.73,3.73,0,0,1,178.16,387.1Zm-2.28-5.18a4.25,4.25,0,1,0,2.77,5.33A4.25,4.25,0,0,0,175.87,381.92Zm2.28,5.18a3.73,3.73,0,1,1-2.44-4.68A3.73,3.73,0,0,1,178.16,387.1Zm-0.86-9.67a9,9,0,1,0,5.85,11.24A9,9,0,0,0,177.29,377.43Zm2,10a4.91,4.91,0,1,1-3.21-6.16A4.92,4.92,0,0,1,179.28,387.45Zm-0.63-.2a4.25,4.25,0,1,0-5.33,2.78A4.25,4.25,0,0,0,178.65,387.26Zm-0.49-.16a3.73,3.73,0,1,1-2.44-4.68A3.73,3.73,0,0,1,178.16,387.1Zm-2.28-5.18a4.25,4.25,0,1,0,2.77,5.33A4.25,4.25,0,0,0,175.87,381.92Zm2.28,5.18a3.73,3.73,0,1,1-2.44-4.68A3.73,3.73,0,0,1,178.16,387.1Zm-2.28-5.18a4.25,4.25,0,1,0,2.77,5.33A4.25,4.25,0,0,0,175.87,381.92Zm2.28,5.18a3.73,3.73,0,1,1-2.44-4.68A3.73,3.73,0,0,1,178.16,387.1Z" transform="translate(-43.37 -43.29)"/><polygon class="cls-10" points="130.28 351.39 127 350.36 126.44 352.74 129.37 353.66 130.28 351.39"/><polygon class="cls-10" points="124.38 348.31 122.78 345.26 120.71 346.56 122.12 349.27 124.38 348.31"/><polygon class="cls-10" points="122.38 341.96 123.41 338.68 121.03 338.12 120.11 341.05 122.38 341.96"/><polygon class="cls-10" points="125.45 336.05 128.51 334.46 127.22 332.39 124.5 333.8 125.45 336.05"/><polygon class="cls-10" points="131.81 334.06 135.09 335.09 135.65 332.71 132.72 331.79 131.81 334.06"/><polygon class="cls-10" points="137.72 337.13 139.31 340.19 141.38 338.89 139.97 336.18 137.72 337.13"/><polygon class="cls-10" points="139.72 343.49 138.68 346.77 141.06 347.32 141.99 344.4 139.72 343.49"/><polygon class="cls-10" points="136.64 349.39 133.58 350.99 134.88 353.06 137.59 351.65 136.64 349.39"/><path class="cls-2" d="M341.67,353.35a13.7,13.7,0,1,0-19.16,2.84A13.7,13.7,0,0,0,341.67,353.35ZM335.81,349a6.4,6.4,0,1,1-1.32-8.95A6.4,6.4,0,0,1,335.81,349Z" transform="translate(-43.37 -43.29)"/><polygon class="cls-2" points="281.59 314 277.36 310.87 275.37 314.03 279.13 316.83 281.59 314"/><polygon class="cls-2" points="274.6 306.61 273.82 301.39 270.18 302.23 270.86 306.86 274.6 306.61"/><polygon class="cls-2" points="274.88 296.43 278.02 292.2 274.86 290.21 272.06 293.97 274.88 296.43"/><polygon class="cls-2" points="282.28 289.43 287.49 288.66 286.66 285.02 282.03 285.7 282.28 289.43"/><polygon class="cls-2" points="292.46 289.72 296.69 292.86 298.68 289.69 294.92 286.9 292.46 289.72"/><polygon class="cls-2" points="299.45 297.12 300.23 302.33 303.87 301.5 303.19 296.86 299.45 297.12"/><polygon class="cls-2" points="299.17 307.3 296.03 311.53 299.2 313.52 301.99 309.75 299.17 307.3"/><polygon class="cls-2" points="291.77 314.29 286.56 315.06 287.39 318.71 292.02 318.02 291.77 314.29"/><path class="cls-2" d="M325.77,345.84l2.91,3.67,4.63-.69,1.72-4.35-2.91-3.67-4.63.68Zm5.52-1.88a1.48,1.48,0,1,1-2.08.31A1.48,1.48,0,0,1,331.28,344Z" transform="translate(-43.37 -43.29)"/><path class="cls-2" d="M351.94,86.6a3.72,3.72,0,1,0,2.43,4.67A3.72,3.72,0,0,0,351.94,86.6Zm2,4.53a3.27,3.27,0,1,1-2.13-4.1A3.27,3.27,0,0,1,353.94,91.13Zm-2-4.53a3.72,3.72,0,1,0,2.43,4.67A3.72,3.72,0,0,0,351.94,86.6Zm2,4.53a3.27,3.27,0,1,1-2.13-4.1A3.27,3.27,0,0,1,353.94,91.13Zm-2-4.53a3.72,3.72,0,1,0,2.43,4.67A3.72,3.72,0,0,0,351.94,86.6Zm2,4.53a3.27,3.27,0,1,1-2.13-4.1A3.27,3.27,0,0,1,353.94,91.13Zm-0.76-8.46a7.84,7.84,0,1,0,5.12,9.84A7.85,7.85,0,0,0,353.18,82.67Zm1.74,8.77a4.3,4.3,0,1,1-2.81-5.39A4.3,4.3,0,0,1,354.92,91.44Zm-0.55-.17a3.72,3.72,0,1,0-4.66,2.43A3.72,3.72,0,0,0,354.37,91.27Zm-0.43-.14a3.27,3.27,0,1,1-2.13-4.1A3.27,3.27,0,0,1,353.94,91.13Zm-2-4.53a3.72,3.72,0,1,0,2.43,4.67A3.72,3.72,0,0,0,351.94,86.6Zm2,4.53a3.27,3.27,0,1,1-2.13-4.1A3.27,3.27,0,0,1,353.94,91.13Zm-2-4.53a3.72,3.72,0,1,0,2.43,4.67A3.72,3.72,0,0,0,351.94,86.6Zm2,4.53a3.27,3.27,0,1,1-2.13-4.1A3.27,3.27,0,0,1,353.94,91.13Z" transform="translate(-43.37 -43.29)"/><polygon class="cls-2" points="306.63 54.48 303.75 53.57 303.27 55.66 305.83 56.46 306.63 54.48"/><polygon class="cls-2" points="301.46 51.78 300.07 49.11 298.25 50.24 299.49 52.62 301.46 51.78"/><polygon class="cls-2" points="299.71 46.22 300.62 43.35 298.53 42.87 297.72 45.42 299.71 46.22"/><polygon class="cls-2" points="302.4 41.05 305.08 39.66 303.94 37.85 301.57 39.09 302.4 41.05"/><polygon class="cls-2" points="307.96 39.3 310.84 40.21 311.32 38.13 308.76 37.32 307.96 39.3"/><polygon class="cls-2" points="313.13 42 314.53 44.67 316.34 43.54 315.1 41.16 313.13 42"/><polygon class="cls-2" points="314.88 47.56 313.98 50.44 316.06 50.92 316.87 48.36 314.88 47.56"/><polygon class="cls-2" points="312.19 52.73 309.51 54.12 310.65 55.94 313.03 54.7 312.19 52.73"/><path class="cls-2" d="M313.73,229.47a3.72,3.72,0,1,0,2.43,4.67A3.72,3.72,0,0,0,313.73,229.47Zm2,4.53a3.27,3.27,0,1,1-2.13-4.1A3.27,3.27,0,0,1,315.72,234Zm-2-4.53a3.72,3.72,0,1,0,2.43,4.67A3.72,3.72,0,0,0,313.73,229.47Zm2,4.53a3.27,3.27,0,1,1-2.13-4.1A3.27,3.27,0,0,1,315.72,234Zm-2-4.53a3.72,3.72,0,1,0,2.43,4.67A3.72,3.72,0,0,0,313.73,229.47Zm2,4.53a3.27,3.27,0,1,1-2.13-4.1A3.27,3.27,0,0,1,315.72,234ZM315,225.53a7.84,7.84,0,1,0,5.12,9.84A7.85,7.85,0,0,0,315,225.53Zm1.74,8.77a4.3,4.3,0,1,1-2.81-5.39A4.3,4.3,0,0,1,316.71,234.31Zm-0.55-.17a3.72,3.72,0,1,0-4.66,2.43A3.72,3.72,0,0,0,316.16,234.13Zm-0.43-.14a3.27,3.27,0,1,1-2.13-4.1A3.27,3.27,0,0,1,315.72,234Zm-2-4.53a3.72,3.72,0,1,0,2.43,4.67A3.72,3.72,0,0,0,313.73,229.47Zm2,4.53a3.27,3.27,0,1,1-2.13-4.1A3.27,3.27,0,0,1,315.72,234Zm-2-4.53a3.72,3.72,0,1,0,2.43,4.67A3.72,3.72,0,0,0,313.73,229.47Zm2,4.53a3.27,3.27,0,1,1-2.13-4.1A3.27,3.27,0,0,1,315.72,234Z" transform="translate(-43.37 -43.29)"/><polygon class="cls-2" points="268.41 197.34 265.54 196.44 265.06 198.52 267.61 199.33 268.41 197.34"/><polygon class="cls-2" points="263.24 194.65 261.85 191.97 260.04 193.11 261.27 195.49 263.24 194.65"/><polygon class="cls-2" points="261.49 189.09 262.4 186.21 260.31 185.73 259.51 188.29 261.49 189.09"/><polygon class="cls-2" points="264.19 183.92 266.86 182.53 265.73 180.71 263.35 181.95 264.19 183.92"/><polygon class="cls-2" points="269.75 182.17 272.62 183.08 273.11 180.99 270.55 180.18 269.75 182.17"/><polygon class="cls-2" points="274.92 184.86 276.31 187.54 278.13 186.41 276.89 184.03 274.92 184.86"/><polygon class="cls-2" points="276.67 190.42 275.76 193.3 277.85 193.78 278.65 191.22 276.67 190.42"/><polygon class="cls-2" points="273.97 195.59 271.3 196.99 272.43 198.8 274.81 197.56 273.97 195.59"/><path class="cls-2" d="M95,117a11.8,11.8,0,1,0-14.25,8.67A11.8,11.8,0,0,0,95,117Zm-6.11-1.49a5.51,5.51,0,1,1-4-6.65A5.51,5.51,0,0,1,88.91,115.5Z" transform="translate(-43.37 -43.29)"/><polygon class="cls-2" points="39.71 82.43 35.31 81.36 34.79 84.53 38.71 85.49 39.71 82.43"/><polygon class="cls-2" points="31.69 78.9 29.33 75.03 26.72 76.91 28.81 80.36 31.69 78.9"/><polygon class="cls-2" points="28.51 70.73 29.58 66.32 26.4 65.81 25.45 69.73 28.51 70.73"/><polygon class="cls-2" points="32.04 62.7 35.91 60.35 34.03 57.73 30.58 59.83 32.04 62.7"/><polygon class="cls-2" points="40.21 59.52 44.61 60.6 45.13 57.42 41.21 56.46 40.21 59.52"/><polygon class="cls-2" points="48.23 63.05 50.59 66.93 53.2 65.05 51.11 61.6 48.23 63.05"/><polygon class="cls-2" points="51.41 71.22 50.34 75.63 53.52 76.15 54.47 72.23 51.41 71.22"/><polygon class="cls-2" points="47.88 79.25 44.01 81.61 45.89 84.22 49.34 82.12 47.88 79.25"/><path class="cls-2" d="M79.89,116.37l3.54,1.94,3.45-2.1-0.09-4-3.53-1.94-3.45,2.09ZM83.64,113a1.28,1.28,0,1,1-1.54.94A1.28,1.28,0,0,1,83.64,113Z" transform="translate(-43.37 -43.29)"/><path class="cls-7" d="M361.59,238.94a24.57,24.57,0,0,1-4.2-13.57c0-17.2,18.88-31.14,42.16-31.14s42.14,13.94,42.14,31.14-18.87,31.14-42.14,31.14c-11.29,0-21.52-3.27-29.08-8.62l-14.52,3.69Z" transform="translate(-43.37 -43.29)"/><path class="cls-2" d="M361.59,238.94a24,24,0,0,1-.94-26,33.17,33.17,0,0,1,9.27-10.06,44.09,44.09,0,0,1,12.23-6.22A56.76,56.76,0,0,1,395.62,194a58.23,58.23,0,0,1,13.73.7c1.12,0.23,2.27.38,3.38,0.68l3.33,0.9,3.25,1.15c1.08,0.39,2.11.92,3.17,1.37a40.69,40.69,0,0,1,11.32,7.83,28.82,28.82,0,0,1,7.29,11.68,23.59,23.59,0,0,1,.14,13.76,28.59,28.59,0,0,1-7.11,11.79,40.39,40.39,0,0,1-11.22,8A49.37,49.37,0,0,1,409.79,256a57.33,57.33,0,0,1-13.71.79,53.85,53.85,0,0,1-13.48-2.56,45.15,45.15,0,0,1-12.26-6.11l0.19,0L356,251.69l-0.22.05,0.09-.2Zm0,0L356,251.62l-0.13-.15,14.49-3.81,0.1,0,0.09,0.06A49.67,49.67,0,0,0,396.12,256a56.55,56.55,0,0,0,13.52-.89A48.67,48.67,0,0,0,422.5,251a39.49,39.49,0,0,0,10.95-7.81,27.65,27.65,0,0,0,6.84-11.41,22.69,22.69,0,0,0-.16-13.2,27.85,27.85,0,0,0-7-11.3,39.76,39.76,0,0,0-11-7.68c-1-.45-2-1-3.1-1.35l-3.19-1.14-3.27-.89c-1.09-.29-2.22-0.45-3.32-0.68a58.56,58.56,0,0,0-13.52-.74,56,56,0,0,0-13.3,2.54,43.45,43.45,0,0,0-12.11,6,33.38,33.38,0,0,0-9.24,9.81,24.27,24.27,0,0,0-3.51,12.95A24.74,24.74,0,0,0,361.59,238.94Z" transform="translate(-43.37 -43.29)"/><path class="cls-2" d="M377.86,230.46v2.32h-9.43V219.19h9.26v2.32h-6.62v3.27h5.72v2.14h-5.72v3.54h6.79Z" transform="translate(-43.37 -43.29)"/><path class="cls-2" d="M379.93,232.78V219.19h6a3.86,3.86,0,0,1,1.73.39,4.49,4.49,0,0,1,1.37,1,4.88,4.88,0,0,1,.9,1.45,4.38,4.38,0,0,1,.33,1.64,4.52,4.52,0,0,1-.66,2.4,3.78,3.78,0,0,1-1.79,1.56l3.1,5.11h-3l-2.77-4.55h-2.6v4.55h-2.64Zm2.64-6.87h3.31a1.39,1.39,0,0,0,.68-0.17,1.73,1.73,0,0,0,.55-0.47,2.31,2.31,0,0,0,.36-0.7,2.69,2.69,0,0,0,.13-0.86,2.47,2.47,0,0,0-.15-0.88,2.3,2.3,0,0,0-.41-0.7,1.86,1.86,0,0,0-.59-0.46,1.54,1.54,0,0,0-.68-0.16h-3.2v4.4Z" transform="translate(-43.37 -43.29)"/><path class="cls-2" d="M392.65,232.78V219.19h6a3.86,3.86,0,0,1,1.73.39,4.49,4.49,0,0,1,1.37,1,4.88,4.88,0,0,1,.9,1.45,4.38,4.38,0,0,1,.33,1.64,4.52,4.52,0,0,1-.66,2.4,3.78,3.78,0,0,1-1.79,1.56l3.1,5.11h-3l-2.77-4.55h-2.6v4.55h-2.64Zm2.64-6.87h3.31a1.39,1.39,0,0,0,.68-0.17,1.73,1.73,0,0,0,.55-0.47,2.31,2.31,0,0,0,.36-0.7,2.69,2.69,0,0,0,.13-0.86,2.47,2.47,0,0,0-.15-0.88,2.3,2.3,0,0,0-.41-0.7,1.86,1.86,0,0,0-.59-0.46,1.54,1.54,0,0,0-.68-0.16h-3.2v4.4Z" transform="translate(-43.37 -43.29)"/><path class="cls-2" d="M411.18,232.87a6.17,6.17,0,0,1-2.71-.58,6.64,6.64,0,0,1-2.09-1.55,7.18,7.18,0,0,1-1.83-4.76,6.83,6.83,0,0,1,.51-2.6,7.19,7.19,0,0,1,1.4-2.2,6.67,6.67,0,0,1,2.12-1.52,6.28,6.28,0,0,1,2.66-.56,6,6,0,0,1,2.69.6,6.7,6.7,0,0,1,2.08,1.58,7.26,7.26,0,0,1,1.34,2.22,7,7,0,0,1,.48,2.53,6.88,6.88,0,0,1-.5,2.59,7.06,7.06,0,0,1-1.38,2.18,6.63,6.63,0,0,1-2.11,1.51A6.28,6.28,0,0,1,411.18,232.87ZM407.24,226a5.46,5.46,0,0,0,.27,1.7,4.55,4.55,0,0,0,.78,1.45,3.85,3.85,0,0,0,1.24,1,3.85,3.85,0,0,0,3.37,0,3.86,3.86,0,0,0,1.24-1,4.66,4.66,0,0,0,.77-1.46,5.44,5.44,0,0,0,.26-1.66,5.31,5.31,0,0,0-.28-1.7,4.71,4.71,0,0,0-.78-1.45,3.75,3.75,0,0,0-1.24-1,3.87,3.87,0,0,0-3.36,0,3.77,3.77,0,0,0-1.24,1,4.63,4.63,0,0,0-.76,1.45A5.42,5.42,0,0,0,407.24,226Z" transform="translate(-43.37 -43.29)"/><path class="cls-2" d="M419.85,232.78V219.19h6a3.86,3.86,0,0,1,1.73.39,4.49,4.49,0,0,1,1.37,1,4.88,4.88,0,0,1,.9,1.45,4.38,4.38,0,0,1,.33,1.64,4.52,4.52,0,0,1-.66,2.4,3.78,3.78,0,0,1-1.79,1.56l3.1,5.11h-3l-2.77-4.55h-2.6v4.55h-2.64Zm2.64-6.87h3.31a1.39,1.39,0,0,0,.68-0.17,1.73,1.73,0,0,0,.55-0.47,2.31,2.31,0,0,0,.36-0.7,2.69,2.69,0,0,0,.13-0.86,2.47,2.47,0,0,0-.15-0.88,2.3,2.3,0,0,0-.41-0.7,1.86,1.86,0,0,0-.59-0.46,1.54,1.54,0,0,0-.68-0.16h-3.2v4.4Z" transform="translate(-43.37 -43.29)"/></svg>